<svg width="24" height="24" viewBox="0 0 24 24" fill="none" xmlns="http://www.w3.org/2000/svg">
<g id="arrow-circle-end" clip-path="url(#clip0_2314_684)">
<g id="g1170">
<path id="path21326" d="M14.8251 6.00053C13.3417 6.02024 11.8716 6.58458 10.6578 7.67138C9.63573 8.58645 9.0602 9.89756 8.90949 11.2701H2.73855C2.54268 11.2701 2.35482 11.348 2.21632 11.4867C2.07781 11.6253 2 11.8134 2 12.0095C2 12.2056 2.07781 12.3937 2.21632 12.5323C2.35482 12.671 2.54268 12.7489 2.73855 12.7489H8.90949C9.06375 14.1475 9.65252 15.486 10.6578 16.4097C13.0029 18.5646 16.4559 18.5197 19.0703 16.3346C21.6848 14.1495 21.6013 9.77731 19.0703 7.59629C17.8048 6.50577 16.3086 5.98083 14.8251 6.00053Z" fill="black" stroke="black" stroke-linecap="round" stroke-linejoin="round"/>
</g>
</g>
<defs>
<clipPath id="clip0_2314_684">
<rect width="24" height="24" fill="white"/>
</clipPath>
</defs>
</svg>
