<svg width="24" height="13" viewBox="0 0 24 13" fill="none" xmlns="http://www.w3.org/2000/svg">
<g id="arrow-square-start" clip-path="url(#clip0_2314_704)">
<g id="g5497">
<path id="path23047" d="M11.5385 0.5H0.5V12.3178H11.5385V0.5ZM11.5384 5.40928C11.4071 5.40928 11.2771 5.43515 11.1557 5.4854C11.0344 5.53566 10.9242 5.60932 10.8313 5.70218C10.7385 5.79503 10.6648 5.90527 10.6145 6.0266C10.5643 6.14792 10.5384 6.27796 10.5384 6.40928C10.5384 6.6745 10.6438 6.92885 10.8313 7.11639C11.0189 7.30392 11.2732 7.40928 11.5384 7.40928H21.5384C21.8036 7.40928 22.058 7.30392 22.2455 7.11639C22.4331 6.92885 22.5384 6.6745 22.5384 6.40928C22.5384 6.27796 22.5126 6.14792 22.4623 6.0266C22.4121 5.90527 22.3384 5.79503 22.2455 5.70218C22.1527 5.60932 22.0424 5.53566 21.9211 5.4854C21.7998 5.43515 21.6698 5.40928 21.5384 5.40928H11.5384Z" fill="black" stroke="black"/>
</g>
</g>
<defs>
<clipPath id="clip0_2314_704">
<rect width="23.0384" height="12.8178" fill="white"/>
</clipPath>
</defs>
</svg>
