<svg width="27" height="18" viewBox="0 0 27 18" fill="none" xmlns="http://www.w3.org/2000/svg">
<g id="arrow-circle-end" clip-path="url(#clip0_2314_684)">
<g id="g1170">
<path id="path21326" d="M17.8652 0.500723C15.8567 0.527374 13.8662 1.29063 12.2227 2.76049C10.8388 3.99809 10.0595 5.77133 9.85547 7.62768H1.5C1.23478 7.62768 0.98043 7.73303 0.792893 7.92057C0.605357 8.10811 0.5 8.36246 0.5 8.62768C0.5 8.89289 0.605357 9.14725 0.792893 9.33478C0.98043 9.52232 1.23478 9.62768 1.5 9.62768H9.85547C10.0643 11.5192 10.8615 13.3295 12.2227 14.5788C15.3979 17.4933 20.0733 17.4326 23.6133 14.4773C27.1533 11.522 27.0402 5.6087 23.6133 2.65893C21.8998 1.18404 19.8738 0.474072 17.8652 0.500723Z" fill="black" stroke="black" stroke-linecap="round" stroke-linejoin="round"/>
</g>
</g>
<defs>
<clipPath id="clip0_2314_684">
<rect width="26.7377" height="17.2198" fill="white"/>
</clipPath>
</defs>
</svg>
