<svg width="24" height="24" viewBox="0 0 24 24" fill="none" xmlns="http://www.w3.org/2000/svg">
<g id="arrow-circle-start">
<g id="arrow-circle-end" clip-path="url(#clip0_2319_814)">
<g id="g1170">
<path id="path21326" d="M9.17489 6.00053C10.6583 6.02024 12.1284 6.58458 13.3422 7.67138C14.3643 8.58645 14.9398 9.89756 15.0905 11.2701H21.2614C21.4573 11.2701 21.6452 11.348 21.7837 11.4867C21.9222 11.6253 22 11.8134 22 12.0095C22 12.2056 21.9222 12.3937 21.7837 12.5323C21.6452 12.671 21.4573 12.7489 21.2614 12.7489H15.0905C14.9362 14.1475 14.3475 15.486 13.3422 16.4097C10.9971 18.5646 7.54413 18.5197 4.92967 16.3346C2.3152 14.1495 2.39869 9.77731 4.92967 7.59629C6.19515 6.50577 7.69145 5.98083 9.17489 6.00053Z" fill="black" stroke="black" stroke-linecap="round" stroke-linejoin="round"/>
</g>
</g>
</g>
<defs>
<clipPath id="clip0_2319_814">
<rect width="24" height="24" fill="white" transform="matrix(-1 0 0 1 24 0)"/>
</clipPath>
</defs>
</svg>
