<svg width="24" height="24" viewBox="0 0 24 24" fill="none" xmlns="http://www.w3.org/2000/svg">
<g id="arrow-bar-start">
<g id="g5535">
<path id="path23041" d="M8.01231 5H3V20H8.01231V5ZM8.01186 11.2301C7.6746 11.2301 7.35115 11.3638 7.11267 11.6018C6.87419 11.8399 6.74021 12.1627 6.74021 12.4994C6.74021 12.836 6.87419 13.1588 7.11267 13.3969C7.35115 13.6349 7.6746 13.7686 8.01186 13.7686H20.7283C21.0656 13.7686 21.3891 13.6349 21.6275 13.3969C21.866 13.1588 22 12.836 22 12.4994C22 12.1627 21.866 11.8399 21.6275 11.6018C21.3891 11.3638 21.0656 11.2301 20.7283 11.2301H8.01186Z" fill="black" stroke="black" stroke-linejoin="round"/>
</g>
</g>
</svg>
