<svg width="16" height="13" viewBox="0 0 16 13" fill="none" xmlns="http://www.w3.org/2000/svg">
<g id="arrow-bar-start" clip-path="url(#clip0_2314_683)">
<g id="g5535">
<path id="path23041" d="M4.44158 0.5H0.5V12.3178H4.44158V0.5ZM4.44123 5.4084C4.17601 5.4084 3.92166 5.51375 3.73412 5.70129C3.54659 5.88882 3.44123 6.14318 3.44123 6.4084C3.44123 6.67361 3.54659 6.92797 3.73412 7.1155C3.92166 7.30304 4.17601 7.4084 4.44123 7.4084H14.4412C14.7064 7.4084 14.9608 7.30304 15.1483 7.1155C15.3359 6.92797 15.4412 6.67361 15.4412 6.4084C15.4412 6.14318 15.3359 5.88882 15.1483 5.70129C14.9608 5.51375 14.7064 5.4084 14.4412 5.4084H4.44123Z" fill="black" stroke="black"/>
</g>
</g>
<defs>
<clipPath id="clip0_2314_683">
<rect width="15.9412" height="12.8178" fill="white"/>
</clipPath>
</defs>
</svg>
