<svg width="27" height="18" viewBox="0 0 27 18" fill="none" xmlns="http://www.w3.org/2000/svg">
<g id="arrow-circle-start" clip-path="url(#clip0_2314_685)">
<g id="g5505">
<path id="path1096-6-56-9" d="M14.5156 2.74982C11.2285 -0.189902 6.55119 -0.301532 3.12425 2.64824C-0.302697 5.59802 -0.415747 11.5108 3.12425 14.4661C6.66424 17.4213 11.3403 17.4821 14.5156 14.5676C17.6909 11.6532 17.8027 5.68954 14.5156 2.74982ZM15.2383 7.61802C14.9731 7.61802 14.7188 7.72338 14.5312 7.91091C14.3437 8.09845 14.2383 8.3528 14.2383 8.61802C14.2383 8.88323 14.3437 9.13759 14.5312 9.32512C14.7188 9.51266 14.9731 9.61802 15.2383 9.61802H25.2383C25.5036 9.61802 25.7579 9.51266 25.9455 9.32512C26.133 9.13759 26.2383 8.88323 26.2383 8.61802C26.2383 8.3528 26.133 8.09845 25.9455 7.91091C25.7579 7.72338 25.5036 7.61802 25.2383 7.61802H15.2383Z" fill="black" stroke="black"/>
</g>
</g>
<defs>
<clipPath id="clip0_2314_685">
<rect width="26.7385" height="17.2086" fill="white"/>
</clipPath>
</defs>
</svg>
