<svg width="24" height="24" viewBox="0 0 24 24" fill="none" xmlns="http://www.w3.org/2000/svg">
<g id="bell-ringing-04">
<path id="Icon" d="M15.646 18.0148C16.0748 19.6152 15.1251 21.2602 13.5247 21.689C11.9243 22.1178 10.2792 21.1681 9.85042 19.5677M2.05689 11.6133C1.6674 10.2151 2.07244 8.70349 3.10884 7.68738M12.1464 5.74085C12.4506 5.19355 12.5508 4.53205 12.3759 3.87945C12.0186 2.54579 10.6477 1.75433 9.31406 2.11168C7.9804 2.46904 7.18894 3.83988 7.5463 5.17355C7.72116 5.82614 8.13869 6.34891 8.67579 6.67079M20.3191 6.72C19.9573 5.31439 18.8507 4.20779 17.4451 3.84602M17.4907 9.44528C17.1337 8.11315 16.1808 6.99919 14.8415 6.34845C13.5023 5.69772 11.8864 5.56352 10.3493 5.97538C8.8122 6.38724 7.47988 7.31142 6.6454 8.54461C5.81092 9.77779 5.54264 11.219 5.89958 12.5511C6.49016 14.7552 6.37548 16.5135 6.00253 17.8497C5.57746 19.3725 5.36493 20.134 5.42235 20.2869C5.48804 20.4618 5.53556 20.5098 5.70979 20.5773C5.86208 20.6363 6.50185 20.4649 7.78139 20.122L19.6465 16.9428C20.926 16.5999 21.5658 16.4285 21.6682 16.3013C21.7853 16.1557 21.8024 16.0904 21.7719 15.906C21.7451 15.7449 21.1804 15.1918 20.0508 14.0855C19.0598 13.1148 18.0813 11.6493 17.4907 9.44528Z" stroke="black" stroke-width="2" stroke-linecap="round" stroke-linejoin="round"/>
</g>
</svg>
