<svg width="21" height="21" viewBox="0 0 21 21" fill="none" xmlns="http://www.w3.org/2000/svg">
<g id="bring-front" clip-path="url(#clip0_2316_49)">
<g id="g7119">
<path id="path7115" d="M14.5 17.5V11.5M14.5 11.5L11.5 14.5M14.5 11.5L17.5 14.5M8.2366 12.5H1.5C0.946 12.5 0.5 12.054 0.5 11.5V1.5C0.5 0.946 0.946 0.5 1.5 0.5H11.5C12.054 0.5 12.5 0.946 12.5 1.5V8.29477M9.5 8.5H19.5C20.054 8.5 20.5 8.946 20.5 9.5V19.5C20.5 20.054 20.054 20.5 19.5 20.5H9.5C8.946 20.5 8.5 20.054 8.5 19.5V9.5C8.5 8.946 8.946 8.5 9.5 8.5Z" stroke="black" stroke-width="2" stroke-linecap="round" stroke-linejoin="round"/>
</g>
</g>
<defs>
<clipPath id="clip0_2316_49">
<rect width="21" height="21" fill="white"/>
</clipPath>
</defs>
</svg>
