<svg width="24" height="24" viewBox="0 0 24 24" fill="none" xmlns="http://www.w3.org/2000/svg">
<g id="bring-forward">
<g id="send-backward" clip-path="url(#clip0_2319_835)">
<g id="g7139">
<path id="path7135" d="M14.6667 12.5625V6.1875M14.6667 6.1875L16.7778 8.3125M14.6667 6.1875L12.5556 8.3125M14.6667 16.0641V18.9375C14.6667 19.5261 14.1959 20 13.6111 20H3.05556C2.47078 20 2 19.5261 2 18.9375V8.3125C2 7.72387 2.47078 7.25 3.05556 7.25H8.13421M19.9444 15.75H9.38889C8.80411 15.75 8.33333 15.2761 8.33333 14.6875V4.0625C8.33333 3.47387 8.80411 3 9.38889 3H19.9444C20.5292 3 21 3.47387 21 4.0625V14.6875C21 15.2761 20.5292 15.75 19.9444 15.75Z" stroke="black" stroke-width="2" stroke-linecap="round" stroke-linejoin="round"/>
</g>
</g>
</g>
<defs>
<clipPath id="clip0_2319_835">
<rect width="24" height="24" fill="white" transform="matrix(-1 0 0 -1 24 24)"/>
</clipPath>
</defs>
</svg>
