<svg width="19" height="17" viewBox="0 0 19 17" fill="none" xmlns="http://www.w3.org/2000/svg">
<g id="bring-forward" clip-path="url(#clip0_2316_51)">
<g id="g7129">
<path id="path7125" d="M12.5 9.5V3.5M12.5 3.5L10.5 5.5M12.5 3.5L14.5 5.5M12.5 12.7336V15.5C12.5 16.054 12.054 16.5 11.5 16.5H1.5C0.946 16.5 0.5 16.054 0.5 15.5V5.5C0.5 4.946 0.946 4.5 1.5 4.5H6.27067M7.5 0.5H17.5C18.054 0.5 18.5 0.946 18.5 1.5V11.5C18.5 12.054 18.054 12.5 17.5 12.5H7.5C6.946 12.5 6.5 12.054 6.5 11.5V1.5C6.5 0.946 6.946 0.5 7.5 0.5Z" stroke="black" stroke-width="2" stroke-linecap="round" stroke-linejoin="round"/>
</g>
</g>
<defs>
<clipPath id="clip0_2316_51">
<rect width="19" height="17" fill="white"/>
</clipPath>
</defs>
</svg>
