<svg width="24" height="24" viewBox="0 0 24 24" fill="none" xmlns="http://www.w3.org/2000/svg">
<g id="cloud" clip-path="url(#clip0_2315_3)">
<g id="g1050">
<path id="path1046" d="M17.683 10.1804H16.5951C16.2721 8.92934 15.6046 7.79396 14.6685 6.90328C13.7325 6.0126 12.5654 5.40234 11.2998 5.14184C10.0342 4.88133 8.72096 4.98104 7.50922 5.42962C6.29749 5.8782 5.23587 6.65768 4.44501 7.67947C3.65414 8.70126 3.16574 9.92439 3.03529 11.2099C2.90485 12.4954 3.13759 13.7917 3.70708 14.9515C4.27657 16.1114 5.15996 17.0882 6.25688 17.7711C7.35381 18.4539 8.62027 18.8154 9.91237 18.8144H17.683C18.8279 18.8144 19.926 18.3596 20.7356 17.55C21.5452 16.7404 22 15.6424 22 14.4974C22 13.3525 21.5452 12.2544 20.7356 11.4448C19.926 10.6352 18.8279 10.1804 17.683 10.1804Z" stroke="black" stroke-width="2" stroke-linecap="round" stroke-linejoin="round"/>
</g>
</g>
<defs>
<clipPath id="clip0_2315_3">
<rect width="24" height="24" fill="white"/>
</clipPath>
</defs>
</svg>
