<svg width="23" height="17" viewBox="0 0 23 17" fill="none" xmlns="http://www.w3.org/2000/svg">
<g id="cloud" clip-path="url(#clip0_2315_3)">
<g id="g1050">
<path id="path1046" d="M17.5072 6.48401H16.2472C15.8731 5.03501 15.1 3.72 14.0158 2.6884C12.9317 1.65681 11.5799 0.95 10.1141 0.648285C8.64832 0.34657 7.12729 0.462049 5.72384 0.981601C4.3204 1.50115 3.09083 2.40394 2.17484 3.58739C1.25885 4.77084 0.693181 6.18749 0.542098 7.67636C0.391015 9.16524 0.660581 10.6666 1.32017 12.01C1.97975 13.3533 3.00291 14.4847 4.27337 15.2756C5.54384 16.0665 7.01067 16.4851 8.50719 16.484H17.5072C18.8333 16.484 20.105 15.9572 21.0427 15.0195C21.9804 14.0819 22.5072 12.8101 22.5072 11.484C22.5072 10.1579 21.9804 8.88616 21.0427 7.94847C20.105 7.01079 18.8333 6.48401 17.5072 6.48401Z" stroke="black" stroke-linecap="round" stroke-linejoin="round"/>
</g>
</g>
<defs>
<clipPath id="clip0_2315_3">
<rect width="23.0071" height="16.984" fill="white"/>
</clipPath>
</defs>
</svg>
