<svg width="24" height="24" viewBox="0 0 24 24" fill="none" xmlns="http://www.w3.org/2000/svg">
<g id="decimation" clip-path="url(#clip0_2315_25)">
<g id="g988">
<path id="path5640" d="M4.35715 13.2533C4.69907 12.8381 5.03711 12.47 5.37128 12.1489C7.9846 9.63809 10.3608 10.0062 12.5 13.2533C14.6588 16.5302 17.0592 16.875 19.7009 14.2877M22 13.2533C22 14.0118 21.3924 14.6267 20.6429 14.6267C19.8933 14.6267 19.2857 14.0118 19.2857 13.2533C19.2857 12.4948 19.8933 11.8799 20.6429 11.8799C21.3924 11.8799 22 12.4948 22 13.2533ZM17.9318 6.37335C17.9318 7.13183 17.3242 7.74671 16.5746 7.74671C15.8251 7.74671 15.2175 7.13183 15.2175 6.37335C15.2175 5.61487 15.8251 5 16.5746 5C17.3242 5 17.9318 5.61487 17.9318 6.37335ZM13.8571 13.2533C13.8571 14.0118 13.2495 14.6267 12.5 14.6267C11.7505 14.6267 11.1429 14.0118 11.1429 13.2533C11.1429 12.4948 11.7505 11.8799 12.5 11.8799C13.2495 11.8799 13.8571 12.4948 13.8571 13.2533ZM5.71429 13.2533C5.71429 14.0118 5.10667 14.6267 4.35714 14.6267C3.60761 14.6267 3 14.0118 3 13.2533C3 12.4948 3.60761 11.8799 4.35714 11.8799C5.10667 11.8799 5.71429 12.4948 5.71429 13.2533Z" stroke="black" stroke-width="2"/>
</g>
</g>
<defs>
<clipPath id="clip0_2315_25">
<rect width="24" height="24" fill="white"/>
</clipPath>
</defs>
</svg>
