<svg width="24" height="11" viewBox="0 0 24 11" fill="none" xmlns="http://www.w3.org/2000/svg">
<g id="decimation" clip-path="url(#clip0_2315_25)">
<g id="g988">
<path id="path5640" d="M2.11887 6.69243C2.52674 6.203 2.92997 5.76905 3.32859 5.3906C6.44589 2.43094 9.28039 2.86488 11.8321 6.69243C14.4073 10.5552 17.2705 10.9616 20.4217 7.91171M23.1642 6.69244C23.1642 7.58652 22.4394 8.31131 21.5453 8.31131C20.6512 8.31131 19.9264 7.58652 19.9264 6.69244C19.9264 5.79836 20.6512 5.07357 21.5453 5.07357C22.4394 5.07357 23.1642 5.79836 23.1642 6.69244ZM18.3114 2.11887C18.3114 3.01295 17.5866 3.73774 16.6925 3.73774C15.7985 3.73774 15.0737 3.01295 15.0737 2.11887C15.0737 1.22479 15.7985 0.5 16.6925 0.5C17.5866 0.5 18.3114 1.22479 18.3114 2.11887ZM13.451 6.69244C13.451 7.58652 12.7262 8.31131 11.8321 8.31131C10.938 8.31131 10.2132 7.58652 10.2132 6.69244C10.2132 5.79836 10.938 5.07357 11.8321 5.07357C12.7262 5.07357 13.451 5.79836 13.451 6.69244ZM9.13397 3.4547C9.13397 4.34878 8.40918 5.07357 7.5151 5.07357C6.62102 5.07357 5.89623 4.34878 5.89623 3.4547C5.89623 2.56063 6.62102 1.83583 7.5151 1.83583C8.40918 1.83583 9.13397 2.56063 9.13397 3.4547ZM3.73774 6.69244C3.73774 7.58652 3.01295 8.31131 2.11887 8.31131C1.22479 8.31131 0.5 7.58652 0.5 6.69244C0.5 5.79836 1.22479 5.07357 2.11887 5.07357C3.01295 5.07357 3.73774 5.79836 3.73774 6.69244Z" stroke="black" stroke-width="0.999998"/>
</g>
</g>
<defs>
<clipPath id="clip0_2315_25">
<rect width="23.6642" height="10.4299" fill="white"/>
</clipPath>
</defs>
</svg>
