<svg width="32" height="32" viewBox="0 0 32 32" fill="none" xmlns="http://www.w3.org/2000/svg">
<g id="dot-tik" clip-path="url(#clip0_2315_16)">
<g id="g31">
</g>
<g id="g1070">
<path id="path2021-3-0" d="M7.03423 21.8517C7.06603 21.8739 7.11312 21.9056 7.16881 21.9398C7.21741 21.9696 7.27565 22.0031 7.3405 22.0358C7.44316 22.0875 7.569 22.1406 7.71282 22.1755C7.91216 22.2238 8.15729 22.2409 8.46343 22.1634C8.71323 22.1002 9.00781 21.9737 9.37346 21.7411C9.57362 21.6138 9.80223 21.4532 10.0685 21.2531C10.9733 20.5732 12.3528 19.3795 14.0771 17.9782C14.7474 17.4334 15.4714 16.8599 16.1779 16.3397C16.8264 15.8622 17.4503 15.4369 17.9994 15.1186C18.2578 14.9689 18.4828 14.8526 18.6727 14.7682C18.8635 14.6833 18.9777 14.6488 19.0354 14.6339C19.0792 14.6226 19.0254 14.6498 18.8309 14.6113C18.7348 14.5922 18.6093 14.5541 18.4733 14.4796C18.3364 14.4046 18.2107 14.3046 18.1064 14.1854C18.0275 14.0913 17.9633 13.983 17.9199 13.8684C17.8781 13.7582 17.8627 13.6617 17.8608 13.5922C17.8578 13.4873 17.8975 13.4197 17.8824 13.5496C17.8708 13.6494 17.8229 13.8217 17.7216 14.061C17.6236 14.2925 17.485 14.5652 17.3036 14.8779C16.9486 15.4896 16.4653 16.1935 15.8826 16.973C15.3169 17.7297 14.687 18.5191 14.0324 19.3255C13.3587 20.1519 12.7806 20.9317 12.3159 21.6562C11.8545 22.3755 11.4912 23.0614 11.2601 23.7015C11.1432 24.0253 11.0551 24.3512 11.0089 24.6738C10.9624 24.9989 10.9562 25.3369 11.0179 25.6711C11.081 26.0154 11.2135 26.3429 11.4269 26.6308C11.6426 26.9216 11.9133 27.135 12.2042 27.2873C12.5908 27.4968 12.9925 27.5701 13.3685 27.5612C13.7454 27.5522 14.1003 27.4611 14.414 27.3426C14.7385 27.22 15.0502 27.056 15.3371 26.8806C15.6358 26.6981 15.9257 26.4923 16.1962 26.2844C16.2909 26.2116 16.3841 26.1379 16.4754 26.064C16.9108 25.7115 17.3355 25.3223 17.7301 24.9346C17.9539 24.7146 18.164 24.4992 18.3552 24.2979C18.5399 24.1032 18.7046 23.9242 18.8413 23.7735C19.1809 23.4071 19.5419 22.9707 19.9009 22.5563C20.2542 22.1486 20.6001 21.7683 20.9308 21.4764C21.0925 21.3337 21.2402 21.2214 21.3744 21.1389C21.5081 21.0567 21.6139 21.0133 21.6948 20.9927C21.7339 20.9827 21.7676 20.9779 21.7963 20.9769C21.8249 20.9759 21.8536 20.9782 21.8842 20.9865C21.9152 20.9949 21.9521 21.0106 21.9951 21.0395C22.0384 21.0686 22.0881 21.1113 22.1426 21.1729C22.1779 21.2105 22.2041 21.2496 22.2231 21.2935C22.2426 21.3385 22.257 21.3943 22.2623 21.4653C22.2732 21.6128 22.2431 21.8064 22.1622 22.0502C22.0815 22.2936 21.9589 22.5618 21.809 22.8503C21.6578 23.1414 21.4836 23.4441 21.3065 23.7519C21.1263 24.0651 20.945 24.3802 20.7822 24.6926C20.6161 25.0112 20.469 25.3277 20.3629 25.6357C20.2542 25.9512 20.1859 26.2659 20.1893 26.5688C20.1913 26.7248 20.2118 26.8778 20.2561 27.0255C20.3013 27.1763 20.3697 27.3174 20.4624 27.4473C20.6102 27.6499 20.7832 27.794 20.972 27.8862C21.1688 27.9822 21.3738 28.017 21.5686 28.0135C21.7746 28.0098 21.9757 27.9639 22.1611 27.8991C22.3627 27.8286 22.557 27.7319 22.7344 27.6277C23.1591 27.3781 23.5372 27.0567 23.7939 26.8149C24.1011 26.5256 24.3077 26.2827 24.4001 26.164C24.513 26.019 24.5531 25.9285 24.5738 25.8939C24.5333 25.9237 24.4657 25.9595 24.3152 26.0804C24.229 26.1496 23.9304 26.3993 23.6306 26.6189C23.3527 26.8224 22.9601 27.0869 22.5492 27.2705C22.3775 27.3472 22.2014 27.4103 22.0301 27.448C21.8715 27.4829 21.7221 27.495 21.5876 27.479C21.4624 27.4642 21.355 27.4264 21.2605 27.3621C21.1728 27.3025 21.088 27.2139 21.0118 27.081C20.9687 27.0073 20.9403 26.9303 20.9241 26.849C20.9081 26.7689 20.9033 26.6811 20.9105 26.5843C20.9247 26.3928 20.9853 26.1703 21.0938 25.9122C21.1992 25.6616 21.3437 25.392 21.5168 25.1017C21.6868 24.8167 21.8752 24.5269 22.0738 24.2217C22.2649 23.9279 22.4662 23.6186 22.6455 23.317C22.8226 23.0192 22.9893 22.7107 23.1135 22.4064C23.2353 22.1076 23.3281 21.7845 23.3353 21.4578C23.3393 21.2926 23.3207 21.1232 23.2713 20.9546C23.2217 20.7855 23.1425 20.6243 23.0314 20.4751C22.9395 20.3503 22.8382 20.2379 22.726 20.1406C22.6136 20.0431 22.4912 19.9616 22.3587 19.8986C22.226 19.8356 22.0878 19.7934 21.9462 19.771C21.8048 19.7487 21.6646 19.7468 21.5279 19.7606C21.256 19.788 20.9978 19.8772 20.7626 19.9923C20.5252 20.1084 20.2958 20.2584 20.0789 20.4217C19.6423 20.7505 19.2113 21.1687 18.8254 21.5577C18.4038 21.9828 18.0604 22.3468 17.7223 22.6591C17.5546 22.8126 17.3763 22.9786 17.2085 23.1322C17.0118 23.3123 16.8021 23.5016 16.5808 23.6942C16.189 24.035 15.7882 24.3619 15.3904 24.6475C15.3076 24.7069 15.2242 24.7649 15.1404 24.8209C14.8986 24.9824 14.6563 25.1259 14.4226 25.24C14.1956 25.3509 13.987 25.4288 13.8057 25.4701C13.6279 25.5105 13.4986 25.5102 13.42 25.4889C13.3427 25.468 13.3376 25.4366 13.3346 25.4144C13.3015 25.3692 13.3316 25.3588 13.3621 25.3678C13.3932 25.3771 13.4213 25.4025 13.4419 25.3871C13.4625 25.3716 13.4813 25.3177 13.5274 25.2138C13.5741 25.1086 13.6398 24.9727 13.745 24.7922C13.9566 24.4296 14.2764 23.9758 14.745 23.4082C15.209 22.8461 15.7871 22.2107 16.4797 21.5003C17.2119 20.7462 17.9451 19.9748 18.6204 19.2184C19.3104 18.4454 19.9502 17.6767 20.4708 16.9466C20.7395 16.5697 20.9855 16.1906 21.1938 15.8149C21.4059 15.4327 21.5944 15.0264 21.7246 14.6061C21.8576 14.1769 21.9496 13.67 21.8981 13.1257C21.8711 12.8408 21.8046 12.5457 21.6846 12.2532C21.5611 11.9526 21.3895 11.6758 21.175 11.4308C20.9565 11.1844 20.7003 10.9833 20.418 10.8309C20.1349 10.678 19.8473 10.5858 19.5757 10.5347C19.0376 10.4336 18.5363 10.4886 18.1453 10.5728C17.7329 10.6615 17.3392 10.8056 16.986 10.962C16.616 11.1257 16.2489 11.3216 15.8965 11.5298C15.1546 11.9681 14.3955 12.5102 13.6913 13.0574C12.9107 13.6641 12.1472 14.3163 11.4653 14.9307C9.70588 16.5159 8.4215 17.8847 7.68676 18.7917C7.47105 19.058 7.29859 19.29 7.16332 19.4922C6.91596 19.8621 6.78199 20.164 6.7152 20.4174C6.6331 20.7287 6.65036 20.9773 6.70006 21.1773C6.73596 21.3218 6.79077 21.4472 6.84429 21.5492C6.87809 21.6136 6.91282 21.6711 6.94372 21.7191C6.97912 21.7742 7.01113 21.8203 7.03423 21.8517Z" fill="#B3B3B3"/>
<path id="path346" d="M6.27541 21.3296C6.30721 21.3519 6.3543 21.3836 6.40999 21.4177C6.45859 21.4476 6.51684 21.4811 6.58169 21.5138C6.68435 21.5655 6.81018 21.6186 6.954 21.6534C7.15334 21.7018 7.39853 21.7189 7.70467 21.6414C7.95447 21.5782 8.24899 21.4517 8.61464 21.2191C8.8148 21.0918 9.04341 20.9312 9.30965 20.7311C10.2145 20.0511 11.594 18.8575 13.3183 17.4561C13.9887 16.9113 14.7127 16.3379 15.4191 15.8177C16.0677 15.3402 16.6915 14.9149 17.2406 14.5966C17.499 14.4468 17.7239 14.3306 17.9139 14.2461C18.1047 14.1613 18.2189 14.1267 18.2766 14.1119C18.3204 14.1006 18.2666 14.1278 18.0721 14.0892C17.976 14.0702 17.8505 14.0321 17.7145 13.9576C17.5775 13.8826 17.4519 13.7826 17.3476 13.6633C17.2687 13.5693 17.2045 13.461 17.161 13.3464C17.1192 13.2361 17.104 13.1397 17.1021 13.0702C17.0991 12.9652 17.1387 12.8977 17.1236 13.0276C17.112 13.1274 17.064 13.2996 16.9628 13.539C16.8648 13.7704 16.7262 14.0432 16.5448 14.3558C16.1898 14.9676 15.7065 15.6714 15.1238 16.451C14.5582 17.2077 13.9282 17.997 13.2736 18.8034C12.5999 19.6298 12.0218 20.4097 11.5571 21.1342C11.0957 21.8535 10.7324 22.5393 10.5012 23.1795C10.3844 23.5032 10.2962 23.8292 10.2501 24.1518C10.2036 24.4769 10.1974 24.8148 10.2591 25.149C10.3222 25.4933 10.4547 25.8209 10.6682 26.1087C10.8838 26.3996 11.1546 26.613 11.4454 26.7653C11.8321 26.9747 12.2336 27.0481 12.6097 27.0392C12.9866 27.0302 13.3415 26.9391 13.6552 26.8206C13.9797 26.698 14.2914 26.5339 14.5784 26.3586C14.8771 26.1761 15.1669 25.9703 15.4374 25.7623C15.5321 25.6896 15.6253 25.6158 15.7166 25.5419C16.152 25.1895 16.5767 24.8002 16.9713 24.4125C17.1951 24.1926 17.4052 23.9772 17.5963 23.7758C17.7811 23.5812 17.9459 23.4021 18.0825 23.2515C18.4221 22.8851 18.7831 22.4487 19.1421 22.0343C19.4953 21.6266 19.8413 21.2463 20.172 20.9544C20.3337 20.8117 20.4815 20.6993 20.6156 20.6169C20.7494 20.5347 20.855 20.4913 20.936 20.4707C20.9751 20.4607 21.0088 20.4559 21.0376 20.4549C21.0662 20.4539 21.0948 20.4562 21.1254 20.4645C21.1564 20.4729 21.1933 20.4885 21.2363 20.5174C21.2796 20.5466 21.3293 20.5893 21.3837 20.6509C21.419 20.6884 21.4453 20.7276 21.4643 20.7715C21.4838 20.8165 21.4981 20.8723 21.5034 20.9432C21.5143 21.0908 21.4844 21.2844 21.4035 21.5282C21.3228 21.7716 21.2002 22.0397 21.0503 22.3283C20.899 22.6194 20.7248 22.9221 20.5477 23.2299C20.3675 23.5431 20.1862 23.8581 20.0233 24.1706C19.8573 24.4892 19.7101 24.8057 19.6041 25.1136C19.4954 25.4292 19.4271 25.7438 19.4305 26.0467C19.4325 26.2027 19.453 26.3558 19.4973 26.5034C19.5425 26.6542 19.6109 26.7954 19.7036 26.9252C19.8514 27.1279 20.0244 27.272 20.2133 27.3642C20.41 27.4602 20.6151 27.495 20.8098 27.4915C21.0158 27.4878 21.217 27.4419 21.4023 27.3771C21.604 27.3066 21.7982 27.2098 21.9755 27.1056C22.4003 26.8561 22.7783 26.5347 23.0351 26.2928C23.3423 26.0035 23.5489 25.7607 23.6414 25.642C23.7543 25.497 23.7943 25.4064 23.815 25.3718C23.7745 25.4017 23.7069 25.4375 23.5564 25.5583C23.4702 25.6276 23.1716 25.8772 22.8718 26.0968C22.5939 26.3004 22.2013 26.5649 21.7904 26.7485C21.6187 26.8252 21.4426 26.8883 21.2713 26.926C21.1127 26.9609 20.9633 26.973 20.8288 26.957C20.7036 26.9422 20.5962 26.9043 20.5017 26.8401C20.414 26.7805 20.3292 26.6919 20.253 26.559C20.2099 26.4852 20.1815 26.4082 20.1653 26.327C20.1493 26.2469 20.1445 26.1591 20.1517 26.0622C20.1659 25.8708 20.2265 25.6483 20.335 25.3902C20.4405 25.1396 20.5848 24.87 20.758 24.5796C20.928 24.2947 21.1164 24.0048 21.315 23.6997C21.5061 23.4059 21.7074 23.0966 21.8867 22.7949C22.0638 22.4971 22.2305 22.1887 22.3546 21.8844C22.4765 21.5856 22.5693 21.2625 22.5764 20.9358C22.5804 20.7706 22.5619 20.6011 22.5125 20.4326C22.4629 20.2635 22.3837 20.1022 22.2726 19.953C22.1807 19.8283 22.0793 19.7159 21.9672 19.6186C21.8548 19.5211 21.7324 19.4395 21.5999 19.3766C21.4672 19.3135 21.329 19.2713 21.1873 19.249C21.046 19.2267 20.9058 19.2248 20.7691 19.2385C20.4972 19.2659 20.239 19.3552 20.0037 19.4703C19.7664 19.5864 19.5369 19.7364 19.3201 19.8997C18.8835 20.2285 18.4525 20.6467 18.0666 21.0357C17.645 21.4608 17.3017 21.8248 16.9636 22.1371C16.7959 22.2906 16.6174 22.4566 16.4497 22.6102C16.253 22.7903 16.0433 22.9796 15.822 23.1721C15.4302 23.5129 15.0294 23.8399 14.6316 24.1254C14.5488 24.1849 14.4654 24.2428 14.3816 24.2988C14.1398 24.4603 13.8975 24.6039 13.6638 24.718C13.4368 24.8288 13.2282 24.9068 13.0468 24.948C12.8691 24.9885 12.7398 24.9882 12.6612 24.9669C12.5839 24.9459 12.5788 24.9145 12.5758 24.8924C12.5427 24.8471 12.5728 24.8367 12.6033 24.8457C12.6344 24.855 12.6625 24.8804 12.6831 24.865C12.7037 24.8496 12.7225 24.7956 12.7686 24.6917C12.8153 24.5865 12.881 24.4507 12.9862 24.2702C13.1977 23.9076 13.5176 23.4538 13.9862 22.8861C14.4502 22.324 15.0283 21.6886 15.721 20.9783C16.4531 20.2242 17.1864 19.4528 17.8616 18.6964C18.5516 17.9234 19.1914 17.1546 19.7119 16.4246C19.9807 16.0477 20.2267 15.6686 20.4351 15.2929C20.6471 14.9106 20.8355 14.5044 20.9658 14.0841C21.0988 13.6549 21.1907 13.148 21.1392 12.6037C21.1122 12.3188 21.0458 12.0237 20.9257 11.7312C20.8023 11.4305 20.6307 11.1538 20.4162 10.9088C20.1977 10.6624 19.9415 10.4612 19.6592 10.3088C19.3761 10.156 19.0885 10.0638 18.8169 10.0127C18.2788 9.91157 17.7775 9.96655 17.3864 10.0507C16.9741 10.1395 16.5804 10.2836 16.2271 10.44C15.8572 10.6037 15.4901 10.7996 15.1377 11.0077C14.3958 11.4461 13.6367 11.9882 12.9326 12.5354C12.1519 13.1421 11.3884 13.7943 10.7065 14.4087C8.94712 15.9939 7.66274 17.3627 6.928 18.2697C6.71229 18.536 6.53983 18.7679 6.40456 18.9702C6.1572 19.3401 6.02317 19.642 5.95638 19.8953C5.87428 20.2067 5.8916 20.4553 5.9413 20.6552C5.9772 20.7997 6.03201 20.9252 6.08553 21.0271C6.11933 21.0915 6.154 21.1491 6.1849 21.1971C6.2203 21.2522 6.25231 21.2983 6.27541 21.3296Z" fill="#666666"/>
</g>
</g>
<defs>
<clipPath id="clip0_2315_16">
<rect width="32" height="32" fill="white"/>
</clipPath>
</defs>
</svg>
