<svg width="24" height="24" viewBox="0 0 24 24" fill="none" xmlns="http://www.w3.org/2000/svg">
<g id="dot-tik">
<g id="g1070">
<path id="path2021-3-0" d="M3.15456 15.101C3.18691 15.1236 3.23483 15.1559 3.29149 15.1906C3.34093 15.221 3.40019 15.2551 3.46617 15.2883C3.57062 15.341 3.69865 15.3949 3.84498 15.4304C4.04779 15.4796 4.2972 15.497 4.60868 15.4182C4.86283 15.3539 5.16255 15.2251 5.53458 14.9885C5.73823 14.859 5.97082 14.6956 6.24171 14.492C7.16236 13.8002 8.56584 12.5857 10.3202 11.1599C11.0022 10.6056 11.7389 10.0222 12.4577 9.49293C13.1175 9.00708 13.7522 8.57441 14.311 8.25052C14.5738 8.09815 14.8027 7.9799 14.996 7.89396C15.1901 7.80764 15.3063 7.7725 15.365 7.75737C15.4095 7.74589 15.3548 7.77354 15.157 7.73434C15.0592 7.71497 14.9315 7.67615 14.7931 7.60036C14.6538 7.52406 14.526 7.42236 14.4198 7.30099C14.3396 7.2053 14.2742 7.09509 14.23 6.97855C14.1875 6.86635 14.1719 6.76821 14.1699 6.69749C14.1669 6.59075 14.2072 6.522 14.1919 6.65419C14.1801 6.75567 14.1313 6.93097 14.0283 7.17446C13.9286 7.40996 13.7876 7.68747 13.603 8.00557C13.2418 8.62799 12.75 9.34413 12.1572 10.1373C11.5817 10.9071 10.9408 11.7103 10.2748 12.5307C9.58936 13.3715 9.00118 14.165 8.52833 14.9021C8.0589 15.634 7.68921 16.3318 7.45407 16.9831C7.33516 17.3125 7.2455 17.6441 7.19854 17.9723C7.15122 18.3031 7.14489 18.6469 7.20766 18.987C7.27186 19.3373 7.40667 19.6706 7.62385 19.9634C7.84329 20.2593 8.11873 20.4764 8.41463 20.6314C8.80804 20.8445 9.21668 20.9192 9.5993 20.9101C9.98273 20.9009 10.3439 20.8083 10.663 20.6877C10.9932 20.5629 11.3103 20.396 11.6023 20.2176C11.9061 20.032 12.2011 19.8225 12.4763 19.611C12.5727 19.5369 12.6674 19.4619 12.7603 19.3867C13.2034 19.0281 13.6354 18.6321 14.0369 18.2376C14.2647 18.0139 14.4784 17.7947 14.6729 17.5898C14.8609 17.3918 15.0285 17.2096 15.1675 17.0564C15.513 16.6835 15.8804 16.2395 16.2456 15.8179C16.605 15.4031 16.957 15.0161 17.2935 14.7192C17.458 14.574 17.6083 14.4597 17.7448 14.3758C17.8809 14.2922 17.9884 14.248 18.0708 14.227C18.1106 14.2168 18.1448 14.212 18.1741 14.211C18.2032 14.2099 18.2323 14.2123 18.2635 14.2207C18.295 14.2293 18.3326 14.2452 18.3763 14.2746C18.4204 14.3043 18.4709 14.3477 18.5263 14.4104C18.5623 14.4486 18.5889 14.4885 18.6083 14.5331C18.6281 14.5789 18.6427 14.6356 18.6481 14.7078C18.6592 14.858 18.6287 15.0549 18.5463 15.303C18.4642 15.5506 18.3395 15.8235 18.187 16.117C18.0331 16.4132 17.8559 16.7212 17.6757 17.0344C17.4924 17.353 17.3079 17.6736 17.1422 17.9915C16.9732 18.3157 16.8235 18.6376 16.7156 18.951C16.6051 19.272 16.5355 19.5922 16.539 19.9003C16.541 20.0591 16.5619 20.2148 16.607 20.365C16.653 20.5184 16.7226 20.6621 16.8169 20.7942C16.9672 21.0003 17.1433 21.147 17.3354 21.2407C17.5356 21.3384 17.7442 21.3738 17.9424 21.3703C18.152 21.3665 18.3566 21.3198 18.5452 21.2539C18.7504 21.1822 18.948 21.0837 19.1285 20.9777C19.5606 20.7238 19.9453 20.3968 20.2065 20.1507C20.519 19.8564 20.7292 19.6093 20.8233 19.4885C20.9381 19.341 20.979 19.2489 21 19.2137C20.9588 19.244 20.89 19.2804 20.7368 19.4034C20.6491 19.4738 20.3454 19.7279 20.0403 19.9513C19.7576 20.1584 19.3581 20.4275 18.9401 20.6143C18.7654 20.6924 18.5863 20.7566 18.4119 20.7949C18.2506 20.8305 18.0985 20.8427 17.9617 20.8265C17.8343 20.8114 17.725 20.7729 17.6289 20.7075C17.5397 20.6469 17.4534 20.5568 17.3758 20.4215C17.332 20.3465 17.3031 20.2681 17.2866 20.1855C17.2703 20.1039 17.2654 20.0146 17.2727 19.9161C17.2872 19.7213 17.3488 19.4949 17.4593 19.2323C17.5666 18.9773 17.7135 18.7031 17.8897 18.4077C18.0626 18.1177 18.2544 17.8228 18.4564 17.5123C18.6508 17.2134 18.8556 16.8987 19.038 16.5918C19.2182 16.2888 19.3879 15.975 19.5142 15.6654C19.6382 15.3614 19.7326 15.0327 19.7398 14.7002C19.7439 14.5322 19.725 14.3598 19.6748 14.1883C19.6243 14.0163 19.5437 13.8522 19.4307 13.7004C19.3372 13.5735 19.2341 13.4591 19.12 13.3601C19.0056 13.2609 18.881 13.1779 18.7462 13.1139C18.6112 13.0497 18.4706 13.0068 18.3265 12.984C18.1827 12.9613 18.0401 12.9594 17.9009 12.9734C17.6243 13.0013 17.3617 13.0921 17.1223 13.2092C16.8807 13.3274 16.6473 13.4799 16.4267 13.6461C15.9825 13.9807 15.544 14.4061 15.1514 14.8019C14.7224 15.2344 14.373 15.6047 14.029 15.9225C13.8584 16.0787 13.6769 16.2476 13.5063 16.4038C13.3061 16.5871 13.0928 16.7797 12.8676 16.9756C12.469 17.3224 12.0612 17.655 11.6565 17.9455C11.5722 18.006 11.4873 18.065 11.402 18.1219C11.1561 18.2863 10.9095 18.4323 10.6718 18.5484C10.4409 18.6612 10.2286 18.7405 10.0441 18.7825C9.86319 18.8236 9.73169 18.8233 9.65171 18.8017C9.57306 18.7804 9.56783 18.7484 9.56477 18.7259C9.5311 18.6798 9.56175 18.6692 9.59278 18.6784C9.62442 18.6878 9.65298 18.7137 9.67394 18.698C9.6949 18.6823 9.71404 18.6274 9.76095 18.5217C9.80846 18.4147 9.87531 18.2764 9.98239 18.0928C10.1976 17.7239 10.523 17.2621 10.9998 16.6846C11.4719 16.1127 12.06 15.4662 12.7648 14.7435C13.5097 13.9763 14.2557 13.1914 14.9427 12.4218C15.6448 11.6354 16.2957 10.8532 16.8254 10.1104C17.0988 9.72691 17.3491 9.34122 17.5611 8.95897C17.7768 8.57004 17.9686 8.15674 18.1011 7.72909C18.2364 7.29243 18.33 6.77664 18.2776 6.22286C18.2501 5.93303 18.1825 5.63274 18.0604 5.33514C17.9348 5.02928 17.7602 4.74769 17.5419 4.49841C17.3196 4.24771 17.0589 4.04307 16.7717 3.88802C16.4837 3.7325 16.191 3.63865 15.9147 3.58671C15.3673 3.48381 14.8572 3.53976 14.4593 3.62541C14.0398 3.71572 13.6392 3.86232 13.2798 4.02141C12.9035 4.18803 12.5299 4.38729 12.1714 4.59911C11.4166 5.04506 10.6442 5.59665 9.92774 6.15342C9.13345 6.77069 8.35666 7.43426 7.66285 8.05938C5.87279 9.67221 4.56601 11.0648 3.81846 11.9877C3.59899 12.2586 3.42353 12.4946 3.2859 12.7004C3.03422 13.0767 2.89792 13.3839 2.82996 13.6417C2.74643 13.9584 2.764 14.2114 2.81456 14.4148C2.85109 14.5618 2.90685 14.6895 2.9613 14.7932C2.99569 14.8587 3.03102 14.9173 3.06246 14.9661C3.09848 15.0222 3.13105 15.0691 3.15456 15.101Z" fill="#B3B3B3"/>
<path id="path346" d="M2.38255 14.5699C2.41491 14.5925 2.46282 14.6248 2.51948 14.6595C2.56893 14.6898 2.62819 14.7239 2.69417 14.7572C2.79862 14.8098 2.92665 14.8638 3.07298 14.8993C3.27579 14.9485 3.52526 14.9659 3.83674 14.8871C4.09089 14.8228 4.39055 14.694 4.76258 14.4574C4.96623 14.3279 5.19882 14.1644 5.4697 13.9609C6.39035 13.2691 7.79389 12.0546 9.54827 10.6288C10.2303 10.0745 10.9669 9.49107 11.6857 8.9618C12.3456 8.47595 12.9802 8.04328 13.539 7.71939C13.8018 7.56702 14.0307 7.44877 14.224 7.36283C14.4181 7.27651 14.5343 7.24137 14.593 7.22624C14.6375 7.21477 14.5828 7.24241 14.3849 7.20321C14.2872 7.18385 14.1595 7.14502 14.0211 7.06924C13.8818 6.99293 13.7539 6.89124 13.6478 6.76986C13.5676 6.67417 13.5022 6.56396 13.458 6.44743C13.4155 6.33523 13.3999 6.23708 13.398 6.16636C13.3949 6.05961 13.4352 5.99087 13.4199 6.12307C13.4081 6.22455 13.3593 6.39985 13.2563 6.64333C13.1566 6.87883 13.0156 7.15634 12.831 7.47444C12.4699 8.09686 11.9781 8.81301 11.3852 9.60614C10.8098 10.376 10.1688 11.1791 9.50275 11.9996C8.81736 12.8404 8.22917 13.6339 7.75633 14.371C7.28689 15.1029 6.91721 15.8006 6.68207 16.452C6.56315 16.7814 6.4735 17.113 6.42653 17.4412C6.37922 17.772 6.37295 18.1158 6.43572 18.4559C6.49992 18.8062 6.63473 19.1394 6.85191 19.4323C7.07134 19.7282 7.34679 19.9453 7.64269 20.1003C8.0361 20.3134 8.44468 20.388 8.8273 20.3789C9.21073 20.3698 9.57187 20.2771 9.891 20.1566C10.2212 20.0318 10.5383 19.8649 10.8303 19.6865C11.1342 19.5008 11.4291 19.2914 11.7043 19.0799C11.8007 19.0058 11.8954 18.9308 11.9883 18.8556C12.4314 18.497 12.8634 18.101 13.2649 17.7065C13.4927 17.4827 13.7064 17.2636 13.9009 17.0587C14.0889 16.8607 14.2565 16.6785 14.3956 16.5252C14.7411 16.1524 15.1084 15.7084 15.4736 15.2868C15.833 14.872 16.185 14.485 16.5215 14.188C16.686 14.0429 16.8363 13.9286 16.9728 13.8447C17.1089 13.7611 17.2164 13.7169 17.2988 13.6959C17.3386 13.6857 17.3729 13.6809 17.4021 13.6798C17.4312 13.6788 17.4604 13.6811 17.4915 13.6896C17.5231 13.6981 17.5606 13.7141 17.6043 13.7435C17.6484 13.7731 17.6989 13.8166 17.7543 13.8793C17.7903 13.9175 17.8169 13.9573 17.8362 14.002C17.8561 14.0478 17.8707 14.1045 17.8761 14.1767C17.8872 14.3268 17.8567 14.5238 17.7744 14.7719C17.6923 15.0195 17.5675 15.2923 17.415 15.5859C17.2612 15.8821 17.0839 16.1901 16.9037 16.5032C16.7203 16.8219 16.5359 17.1424 16.3702 17.4603C16.2012 17.7845 16.0515 18.1065 15.9436 18.4198C15.8331 18.7409 15.7636 19.061 15.767 19.3692C15.7691 19.5279 15.7899 19.6837 15.835 19.8339C15.881 19.9873 15.9506 20.1309 16.0449 20.263C16.1952 20.4692 16.3713 20.6158 16.5635 20.7096C16.7636 20.8073 16.9723 20.8427 17.1704 20.8392C17.38 20.8354 17.5846 20.7887 17.7732 20.7228C17.9784 20.651 18.176 20.5526 18.3565 20.4466C18.7886 20.1926 19.1732 19.8657 19.4345 19.6196C19.747 19.3252 19.9573 19.0781 20.0513 18.9574C20.1662 18.8099 20.2069 18.7178 20.228 18.6825C20.1868 18.7129 20.118 18.7493 19.9648 18.8723C19.8771 18.9427 19.5734 19.1968 19.2683 19.4202C18.9855 19.6273 18.5861 19.8964 18.168 20.0832C17.9934 20.1612 17.8142 20.2254 17.6399 20.2638C17.4786 20.2993 17.3265 20.3116 17.1897 20.2953C17.0623 20.2803 16.953 20.2418 16.8569 20.1764C16.7677 20.1157 16.6814 20.0256 16.6038 19.8904C16.56 19.8154 16.5311 19.737 16.5146 19.6543C16.4984 19.5728 16.4935 19.4835 16.5008 19.385C16.5152 19.1902 16.5769 18.9638 16.6873 18.7012C16.7946 18.4462 16.9415 18.1719 17.1177 17.8765C17.2906 17.5866 17.4824 17.2917 17.6844 16.9812C17.8788 16.6823 18.0837 16.3676 18.2661 16.0607C18.4462 15.7577 18.6159 15.4439 18.7422 15.1342C18.8662 14.8303 18.9606 14.5016 18.9678 14.1691C18.9719 14.0011 18.953 13.8286 18.9027 13.6572C18.8523 13.4851 18.7717 13.3211 18.6587 13.1692C18.5652 13.0423 18.4621 12.928 18.3479 12.829C18.2336 12.7298 18.109 12.6468 17.9742 12.5827C17.8392 12.5186 17.6986 12.4757 17.5545 12.4529C17.4107 12.4302 17.2681 12.4283 17.1289 12.4423C16.8523 12.4702 16.5897 12.561 16.3503 12.6781C16.1087 12.7962 15.8753 12.9488 15.6547 13.115C15.2105 13.4495 14.7719 13.875 14.3794 14.2708C13.9504 14.7033 13.6011 15.0736 13.2571 15.3914C13.0865 15.5476 12.9049 15.7165 12.7343 15.8727C12.5341 16.056 12.3208 16.2486 12.0956 16.4445C11.697 16.7912 11.2892 17.1239 10.8845 17.4144C10.8002 17.4749 10.7154 17.5338 10.6301 17.5908C10.3841 17.7552 10.1375 17.9012 9.89975 18.0173C9.66885 18.1301 9.4566 18.2094 9.27205 18.2514C9.09118 18.2925 8.95969 18.2922 8.87971 18.2705C8.80106 18.2492 8.79588 18.2173 8.79283 18.1947C8.75915 18.1487 8.78974 18.1381 8.82078 18.1473C8.85242 18.1567 8.88104 18.1826 8.902 18.1669C8.92296 18.1512 8.94204 18.0963 8.98894 17.9906C9.03646 17.8835 9.1033 17.7453 9.21039 17.5617C9.42559 17.1928 9.75103 16.731 10.2278 16.1535C10.6999 15.5816 11.2881 14.9351 11.9928 14.2124C12.7377 13.4452 13.4838 12.6603 14.1708 11.8907C14.8728 11.1042 15.5237 10.322 16.0534 9.57927C16.3268 9.19578 16.5771 8.81009 16.7891 8.42784C17.0048 8.03891 17.1966 7.62562 17.3291 7.19797C17.4644 6.76131 17.558 6.24551 17.5056 5.69173C17.4781 5.4019 17.4105 5.10161 17.2883 4.80401C17.1628 4.49815 16.9882 4.21656 16.7699 3.96729C16.5476 3.71659 16.2869 3.51195 15.9997 3.35689C15.7117 3.20138 15.419 3.10753 15.1427 3.05558C14.5953 2.95269 14.0852 3.00863 13.6873 3.09428C13.2678 3.18459 12.8672 3.33119 12.5078 3.49029C12.1314 3.6569 11.7579 3.85617 11.3994 4.06798C10.6446 4.51393 9.87224 5.06552 9.1558 5.62229C8.36151 6.23957 7.58472 6.90314 6.89091 7.52825C5.10085 9.14109 3.79407 10.5337 3.04652 11.4565C2.82705 11.7275 2.65158 11.9635 2.51396 12.1693C2.26228 12.5456 2.12591 12.8528 2.05796 13.1106C1.97443 13.4273 1.99205 13.6803 2.04262 13.8837C2.07915 14.0307 2.13491 14.1584 2.18936 14.2621C2.22375 14.3276 2.25902 14.3861 2.29046 14.435C2.32648 14.491 2.35905 14.538 2.38255 14.5699Z" fill="#666666"/>
</g>
</g>
</svg>
