<svg width="24" height="24" viewBox="0 0 24 24" fill="none" xmlns="http://www.w3.org/2000/svg">
<g id="draw-to-tape">
<g id="tape">
<g id="receipt">
<path id="Icon" d="M16.9333 2C18.7068 2 19.5936 2 20.271 2.38829C20.8668 2.72984 21.3513 3.27483 21.6549 3.94516C22 4.70722 22 5.70481 22 7.7V15.3C22 17.2952 22 18.2927 21.6549 19.0549C21.3513 19.7252 20.8668 20.2702 20.271 20.6117C19.5936 21 18.7068 21 16.9333 21H3L5.11111 17.7344L3 14.7656L5.11111 11.5L3 8.23438L5.11111 5.26562L3 2H16.9333Z" stroke="black" stroke-width="2" stroke-linecap="round" stroke-linejoin="round"/>
</g>
</g>
<path id="Vector 2" d="M21 5C10.9062 5 13.5625 20 4 20" stroke="black" stroke-width="2"/>
</g>
</svg>
