<svg width="32" height="22" viewBox="0 0 32 22" fill="none" xmlns="http://www.w3.org/2000/svg">
<g id="eraser-partial" clip-path="url(#clip0_2315_14)">
<g id="g12001">
<path id="path13714-6" d="M13.5608 0.5C12.6762 0.5 11.7927 0.865825 11.1155 1.54297L1.55302 11.1055C0.142256 12.3752 0.162268 14.6034 1.51591 15.957L6.10966 20.5508H12.9378H14.4358L18.4007 16.584H16.9046L21.5296 11.957L21.4905 11.9922C22.9013 10.7225 22.8832 8.49622 21.5296 7.14258L15.9651 1.58008C15.3306 0.874961 14.4454 0.5 13.5608 0.5ZM20.178 16.584L16.1917 20.5508H20.4749L24.4417 16.584H20.178ZM26.2171 16.584L22.2288 20.5508H26.6878L30.6858 16.584H26.2171Z" fill="black" stroke="black"/>
</g>
</g>
<defs>
<clipPath id="clip0_2315_14">
<rect width="31.8997" height="21.0508" fill="white"/>
</clipPath>
</defs>
</svg>
