<svg width="24" height="22" viewBox="0 0 24 22" fill="none" xmlns="http://www.w3.org/2000/svg">
<g id="eraser-object" clip-path="url(#clip0_2315_27)">
<g id="g850-7">
<path id="path13714" d="M13.5608 0.5C12.6762 0.5 11.7927 0.865824 11.1155 1.54297L1.55302 11.1055C0.142256 12.3752 0.162268 14.6034 1.51591 15.957L6.10966 20.5508H12.9378H22.6878L22.6858 18.584H14.9045L21.5295 11.957L21.4905 11.9922C22.9013 10.7225 22.8832 8.49622 21.5296 7.14258L15.9651 1.58008C15.3306 0.87496 14.4454 0.5 13.5608 0.5ZM12.5726 6.26172C13.4948 6.26217 14.3791 6.62886 15.031 7.28116C15.683 7.93347 16.0492 8.81799 16.0491 9.74023C16.0492 10.6625 15.683 11.547 15.031 12.1993C14.3791 12.8516 13.4948 13.2183 12.5726 13.2188C12.1157 13.2188 11.6634 13.1288 11.2413 12.954C10.8193 12.7792 10.4358 12.523 10.1128 12.2C9.78977 11.877 9.53355 11.4935 9.35875 11.0714C9.18395 10.6494 9.094 10.197 9.09404 9.74023C9.094 9.28342 9.18395 8.83107 9.35875 8.40902C9.53355 7.98697 9.78977 7.60349 10.1128 7.28047C10.4358 6.95746 10.8193 6.70123 11.2413 6.52643C11.6634 6.35163 12.1157 6.26168 12.5726 6.26172Z" fill="black" stroke="black"/>
</g>
</g>
<defs>
<clipPath id="clip0_2315_27">
<rect width="23.1884" height="21.0508" fill="white"/>
</clipPath>
</defs>
</svg>
