<svg width="24" height="24" viewBox="0 0 24 24" fill="none" xmlns="http://www.w3.org/2000/svg">
<g id="Google_Drive_icon">
<g id="Frame 5">
<g id="Group 6">
<path id="Vector" opacity="0.8" d="M4.43643 18.5699L5.27434 20.0192C5.44845 20.3243 5.69874 20.5641 5.99255 20.7384L8.98511 15.5513H3C3 15.8891 3.08706 16.2269 3.26117 16.532L4.43643 18.5699Z" fill="black"/>
<path id="Vector_2" opacity="0.3" d="M12.5 9.44865L9.50745 4.26147C9.21363 4.43583 8.96334 4.67558 8.78923 4.98071L3.26117 14.5704C3.09026 14.869 3.00023 15.2071 3 15.5512H8.98511L12.5 9.44865Z" fill="black"/>
<path id="Vector_3" opacity="0.7" d="M19.0074 20.7384C19.3012 20.5641 19.5515 20.3243 19.7256 20.0192L20.0738 19.4199L21.7388 16.532C21.9129 16.2269 21.9999 15.8891 21.9999 15.5513H16.0144L16 15.5L19.0074 20.7384Z" fill="black"/>
<path id="Vector_4" opacity="0.6" d="M12.4999 9.44872L15.4924 4.26154C15.1986 4.08718 14.8613 4 14.5131 4H10.4867C10.1385 4 9.80114 4.09808 9.50732 4.26154L12.4999 9.44872Z" fill="black"/>
<path id="Vector_5" opacity="0.6" d="M16.015 15.5513H8.98523L5.99268 20.7384C6.28649 20.9128 6.62383 21 6.97206 21H18.0282C18.3764 21 18.7138 20.9019 19.0076 20.7384L16.015 15.5513Z" fill="black"/>
<path id="Vector_6" opacity="0.4" d="M18.9748 9.77558L16.2108 4.98071C16.0367 4.67558 15.7864 4.43583 15.4926 4.26147L12.5 9.44865L16.0149 15.5512H21.9891C21.9891 15.2134 21.9021 14.8756 21.728 14.5704L18.9748 9.77558Z" fill="black"/>
</g>
</g>
</g>
</svg>
