<svg width="24" height="24" viewBox="0 0 24 24" fill="none" xmlns="http://www.w3.org/2000/svg">
<g id="group" clip-path="url(#clip0_2315_11)">
<g id="g7159">
<path id="rect7155" d="M4.9 3H20.1C21.1526 3 22 3.8474 22 4.9V20.1C22 21.1526 21.1526 22 20.1 22H4.9C3.8474 22 3 21.1526 3 20.1V4.9C3 3.8474 3.8474 3 4.9 3ZM13.0695 6.61229H17.628C18.0489 6.61229 18.3877 6.95114 18.3877 7.37204V11.9305C18.3877 12.3514 18.0489 12.6903 17.628 12.6903H13.0695C12.6486 12.6903 12.3097 12.3514 12.3097 11.9305V7.37204C12.3097 6.95114 12.6486 6.61229 13.0695 6.61229ZM12.6918 15.3412C12.6918 15.7395 12.6133 16.1339 12.4609 16.5019C12.3085 16.8699 12.085 17.2043 11.8034 17.4859C11.5218 17.7675 11.1874 17.9909 10.8194 18.1434C10.4515 18.2958 10.0571 18.3742 9.65875 18.3742C9.26045 18.3742 8.86606 18.2958 8.49808 18.1434C8.1301 17.9909 7.79574 17.7675 7.5141 17.4859C7.23246 17.2043 7.00905 16.8699 6.85663 16.5019C6.70421 16.1339 6.62576 15.7395 6.62576 15.3412C6.62576 14.9429 6.70421 14.5485 6.85663 14.1806C7.00905 13.8126 7.23246 13.4782 7.5141 13.1966C7.79574 12.915 8.1301 12.6915 8.49808 12.5391C8.86606 12.3867 9.26045 12.3082 9.65875 12.3082C10.0571 12.3082 10.4515 12.3867 10.8194 12.5391C11.1874 12.6915 11.5218 12.915 11.8034 13.1966C12.085 13.4782 12.3085 13.8126 12.4609 14.1806C12.6133 14.5485 12.6918 14.9429 12.6918 15.3412Z" stroke="black" stroke-width="2" stroke-linecap="round" stroke-linejoin="round"/>
</g>
</g>
<defs>
<clipPath id="clip0_2315_11">
<rect width="24" height="24" fill="white"/>
</clipPath>
</defs>
</svg>
