<svg width="21" height="21" viewBox="0 0 21 21" fill="none" xmlns="http://www.w3.org/2000/svg">
<g id="group" clip-path="url(#clip0_2315_11)">
<g id="g7159">
<path id="rect7155" d="M2.5 0.5H18.5C19.608 0.5 20.5 1.392 20.5 2.5V18.5C20.5 19.608 19.608 20.5 18.5 20.5H2.5C1.392 20.5 0.5 19.608 0.5 18.5V2.5C0.5 1.392 1.392 0.5 2.5 0.5ZM11.0995 4.30241H15.8979C16.3409 4.30241 16.6976 4.65909 16.6976 5.10214V9.90054C16.6976 10.3436 16.3409 10.7003 15.8979 10.7003H11.0995C10.6564 10.7003 10.2997 10.3436 10.2997 9.90054V5.10214C10.2997 4.65909 10.6564 4.30241 11.0995 4.30241ZM10.7018 13.4908C10.7018 13.91 10.6193 14.3252 10.4588 14.7126C10.2984 15.0999 10.0632 15.4519 9.76674 15.7483C9.47028 16.0448 9.11833 16.2799 8.73098 16.4404C8.34363 16.6008 7.92848 16.6834 7.50921 16.6834C7.08995 16.6834 6.6748 16.6008 6.28745 16.4404C5.9001 16.2799 5.54815 16.0448 5.25168 15.7483C4.95522 15.4519 4.72005 15.0999 4.55961 14.7126C4.39916 14.3252 4.31659 13.91 4.31659 13.4908C4.31659 13.0715 4.39916 12.6564 4.55961 12.269C4.72005 11.8817 4.95522 11.5297 5.25168 11.2333C5.54815 10.9368 5.9001 10.7016 6.28745 10.5412C6.6748 10.3807 7.08995 10.2982 7.50921 10.2982C7.92848 10.2982 8.34363 10.3807 8.73098 10.5412C9.11833 10.7016 9.47028 10.9368 9.76674 11.2333C10.0632 11.5297 10.2984 11.8817 10.4588 12.269C10.6193 12.6564 10.7018 13.0715 10.7018 13.4908Z" stroke="black" stroke-width="2" stroke-linecap="round" stroke-linejoin="round"/>
</g>
</g>
<defs>
<clipPath id="clip0_2315_11">
<rect width="21" height="21" fill="white"/>
</clipPath>
</defs>
</svg>
