<svg width="22" height="24" viewBox="0 0 22 24" fill="none" xmlns="http://www.w3.org/2000/svg">
<g id="lock" clip-path="url(#clip0_2315_37)">
<g id="g5249">
<path id="path5357" d="M5.00777 7.81034V6.25282C5.00777 3.07563 7.50554 0.5 10.6827 0.5C13.8599 0.5 16.2952 3.07563 16.2952 6.25282V7.81034M1.08578 8.6431H20.2172C20.5417 8.6431 20.803 8.90436 20.803 9.22888V22.0572C20.803 22.3818 20.5417 22.643 20.2172 22.643H1.08578C0.761258 22.643 0.5 22.3818 0.5 22.0572V9.22888C0.5 8.90436 0.761258 8.6431 1.08578 8.6431Z" stroke="black" stroke-width="0.999997" stroke-linecap="square" stroke-linejoin="round"/>
<path id="path5360" d="M13.1294 15.6431C13.1294 15.9685 13.0653 16.2907 12.9408 16.5914C12.8163 16.892 12.6337 17.1652 12.4036 17.3953C12.1735 17.6254 11.9003 17.808 11.5997 17.9325C11.299 18.057 10.9768 18.1211 10.6514 18.1211C9.99415 18.1211 9.36383 17.86 8.89911 17.3953C8.43438 16.9306 8.17334 16.3003 8.17334 15.6431C8.17334 14.9858 8.43438 14.3555 8.89911 13.8908C9.36383 13.4261 9.99415 13.165 10.6514 13.165C10.9768 13.165 11.299 13.2291 11.5997 13.3536C11.9003 13.4782 12.1735 13.6607 12.4036 13.8908C12.6337 14.1209 12.8163 14.3941 12.9408 14.6948C13.0653 14.9954 13.1294 15.3176 13.1294 15.6431Z" fill="black" stroke="black" stroke-linecap="square" stroke-linejoin="round"/>
</g>
</g>
<defs>
<clipPath id="clip0_2315_37">
<rect width="21.303" height="23.143" fill="white"/>
</clipPath>
</defs>
</svg>
