<svg width="24" height="24" viewBox="0 0 24 24" fill="none" xmlns="http://www.w3.org/2000/svg">
<g id="minimize-02">
<path id="Icon" d="M2.99986 8H3.19985C4.88001 8 5.72009 8 6.36183 7.67302C6.92631 7.3854 7.38525 6.92646 7.67287 6.36197C7.99986 5.72024 7.99986 4.88016 7.99986 3.2V3M2.99986 16H3.19985C4.88001 16 5.72009 16 6.36183 16.327C6.92631 16.6146 7.38525 17.0735 7.67287 17.638C7.99986 18.2798 7.99986 19.1198 7.99986 20.8V21M15.9999 3V3.2C15.9999 4.88016 15.9999 5.72024 16.3268 6.36197C16.6145 6.92646 17.0734 7.3854 17.6379 7.67302C18.2796 8 19.1197 8 20.7999 8H20.9999M15.9999 21V20.8C15.9999 19.1198 15.9999 18.2798 16.3268 17.638C16.6145 17.0735 17.0734 16.6146 17.6379 16.327C18.2796 16 19.1197 16 20.7999 16H20.9999" stroke="black" stroke-width="2" stroke-linecap="round" stroke-linejoin="round"/>
</g>
</svg>
