<svg width="24" height="23" viewBox="0 0 24 23" fill="none" xmlns="http://www.w3.org/2000/svg">
<g id="OCR-all">
<g id="g1161-5">
<g id="Group 3">
<path id="path1159-3" d="M9.18315 8.48413V11.678M4.89258 10.0931V8.48413H13.4737V10.0931" stroke="black" stroke-width="2" stroke-linecap="round" stroke-linejoin="round"/>
<path id="path1364-5" d="M16.3661 20.0468V15.2579M16.3463 20.0468H11.5575M2 20.0468V15.2579M2.01973 20.0468H6.80856M16.3661 5.72192V10.5108M16.3463 5.72192H11.5575M2 5.72192V10.5108M2.01973 5.72192H6.80856" stroke="black" stroke-width="2" stroke-linecap="round" stroke-linejoin="round"/>
<path id="path2750-6" d="M6.49927 18.4199H11.8666" stroke="black" stroke-width="2" stroke-linecap="round" stroke-linejoin="round"/>
<path id="path2750-7-2" d="M7.84619 16.6628H10.5199" stroke="black" stroke-width="2" stroke-linecap="round" stroke-linejoin="round"/>
<path id="path2787-9" d="M7.84619 14.906H10.5199" stroke="black" stroke-width="2" stroke-linecap="round" stroke-linejoin="round"/>
<path id="path2789-1" d="M2.45898 13.1489H15.9072" stroke="black" stroke-width="2" stroke-linecap="round" stroke-linejoin="round"/>
<path id="path2887" d="M18.7977 18.2689V13.4801M18.778 18.2689H16.3966M18.7977 3.94409V8.73292M18.778 3.94409H13.9891M4.43164 3.94409V5.68123M4.45137 3.94409H9.2402" stroke="black" stroke-width="2" stroke-linecap="round" stroke-linejoin="round"/>
<path id="path2889" d="M21.0001 16.3248V11.536M20.9804 16.3248H18.9616M21.0001 2V6.78883M20.9804 2H16.1915M6.63403 2V3.7569M6.65376 2H11.4426" stroke="black" stroke-width="2" stroke-linecap="round" stroke-linejoin="round"/>
</g>
</g>
</g>
</svg>
