<svg width="24" height="24" viewBox="0 0 24 24" fill="none" xmlns="http://www.w3.org/2000/svg">
<g id="pattern-dots">
<g id="g2181">
<path id="path2986" d="M19.2856 20.2618C19.2856 20.4901 19.2394 20.7161 19.1496 20.927C19.0599 21.1379 18.9283 21.3295 18.7623 21.4909C18.5964 21.6523 18.3995 21.7803 18.1827 21.8677C17.966 21.955 17.7336 22 17.499 22C17.2644 22 17.032 21.955 16.8153 21.8677C16.5985 21.7803 16.4016 21.6523 16.2357 21.4909C16.0697 21.3295 15.9381 21.1379 15.8484 20.927C15.7586 20.7161 15.7124 20.4901 15.7124 20.2618C15.7124 19.8009 15.9006 19.3588 16.2357 19.0328C16.5707 18.7068 17.0252 18.5237 17.499 18.5237C17.9728 18.5237 18.4273 18.7068 18.7623 19.0328C19.0974 19.3588 19.2856 19.8009 19.2856 20.2618ZM19.2856 12.5C19.2856 12.7283 19.2394 12.9543 19.1496 13.1652C19.0599 13.376 18.9283 13.5677 18.7623 13.7291C18.5964 13.8905 18.3995 14.0185 18.1827 14.1058C17.966 14.1932 17.7336 14.2382 17.499 14.2382C17.2644 14.2382 17.032 14.1932 16.8153 14.1058C16.5985 14.0185 16.4016 13.8905 16.2357 13.7291C16.0697 13.5677 15.9381 13.376 15.8484 13.1652C15.7586 12.9543 15.7124 12.7283 15.7124 12.5C15.7124 12.039 15.9006 11.5969 16.2357 11.2709C16.5707 10.945 17.0252 10.7618 17.499 10.7618C17.9728 10.7618 18.4273 10.945 18.7623 11.2709C19.0974 11.5969 19.2856 12.039 19.2856 12.5ZM19.2856 4.73815C19.2856 5.19914 19.0974 5.64125 18.7623 5.96721C18.4273 6.29318 17.9728 6.47631 17.499 6.47631C17.0252 6.47631 16.5707 6.29318 16.2357 5.96721C15.9006 5.64125 15.7124 5.19914 15.7124 4.73815C15.7124 4.5099 15.7586 4.28387 15.8484 4.07299C15.9381 3.86211 16.0697 3.6705 16.2357 3.50909C16.4016 3.34769 16.5985 3.21966 16.8153 3.13231C17.032 3.04496 17.2644 3 17.499 3C17.7336 3 17.966 3.04496 18.1827 3.13231C18.3995 3.21966 18.5964 3.34769 18.7623 3.50909C18.9283 3.6705 19.0599 3.86211 19.1496 4.07299C19.2394 4.28387 19.2856 4.5099 19.2856 4.73815ZM12.5723 20.2618C12.5723 20.4901 12.5261 20.7161 12.4363 20.927C12.3465 21.1379 12.2149 21.3295 12.049 21.4909C11.8831 21.6523 11.6861 21.7803 11.4694 21.8677C11.2526 21.955 11.0203 22 10.7856 22C10.551 22 10.3187 21.955 10.1019 21.8677C9.88516 21.7803 9.6882 21.6523 9.5223 21.4909C9.35639 21.3295 9.22479 21.1379 9.135 20.927C9.04521 20.7161 8.999 20.4901 8.999 20.2618C8.999 19.8009 9.18724 19.3588 9.5223 19.0328C9.85736 18.7068 10.3118 18.5237 10.7856 18.5237C11.2595 18.5237 11.7139 18.7068 12.049 19.0328C12.3841 19.3588 12.5723 19.8009 12.5723 20.2618ZM12.5723 12.5C12.5723 12.7283 12.5261 12.9543 12.4363 13.1652C12.3465 13.376 12.2149 13.5677 12.049 13.7291C11.8831 13.8905 11.6861 14.0185 11.4694 14.1058C11.2526 14.1932 11.0203 14.2382 10.7856 14.2382C10.551 14.2382 10.3187 14.1932 10.1019 14.1058C9.88516 14.0185 9.6882 13.8905 9.5223 13.7291C9.35639 13.5677 9.22479 13.376 9.135 13.1652C9.04521 12.9543 8.999 12.7283 8.999 12.5C8.999 12.039 9.18724 11.5969 9.5223 11.2709C9.85736 10.945 10.3118 10.7618 10.7856 10.7618C11.2595 10.7618 11.7139 10.945 12.049 11.2709C12.3841 11.5969 12.5723 12.039 12.5723 12.5ZM12.5723 4.73815C12.5723 5.19914 12.3841 5.64125 12.049 5.96721C11.7139 6.29318 11.2595 6.47631 10.7856 6.47631C10.3118 6.47631 9.85736 6.29318 9.5223 5.96721C9.18724 5.64125 8.999 5.19914 8.999 4.73815C8.999 4.5099 9.04521 4.28387 9.135 4.07299C9.22479 3.86211 9.35639 3.6705 9.5223 3.50909C9.6882 3.34769 9.88516 3.21966 10.1019 3.13231C10.3187 3.04496 10.551 3 10.7856 3C11.0203 3 11.2526 3.04496 11.4694 3.13231C11.6861 3.21966 11.8831 3.34769 12.049 3.50909C12.2149 3.6705 12.3465 3.86211 12.4363 4.07299C12.5261 4.28387 12.5723 4.5099 12.5723 4.73815ZM5.85893 20.2618C5.85893 20.4901 5.81272 20.7161 5.72293 20.927C5.63315 21.1379 5.50154 21.3295 5.33564 21.4909C5.16973 21.6523 4.97277 21.7803 4.75601 21.8677C4.53924 21.955 4.30691 22 4.07229 22C3.83766 22 3.60534 21.955 3.38857 21.8677C3.1718 21.7803 2.97485 21.6523 2.80894 21.4909C2.64303 21.3295 2.51143 21.1379 2.42164 20.927C2.33186 20.7161 2.28564 20.4901 2.28564 20.2618C2.28564 19.8009 2.47388 19.3588 2.80894 19.0328C3.144 18.7068 3.59844 18.5237 4.07229 18.5237C4.54614 18.5237 5.00058 18.7068 5.33564 19.0328C5.6707 19.3588 5.85893 19.8009 5.85893 20.2618ZM5.85893 12.5C5.85893 12.7283 5.81272 12.9543 5.72293 13.1652C5.63315 13.376 5.50154 13.5677 5.33564 13.7291C5.16973 13.8905 4.97277 14.0185 4.75601 14.1058C4.53924 14.1932 4.30691 14.2382 4.07229 14.2382C3.83766 14.2382 3.60534 14.1932 3.38857 14.1058C3.1718 14.0185 2.97485 13.8905 2.80894 13.7291C2.64303 13.5677 2.51143 13.376 2.42164 13.1652C2.33186 12.9543 2.28564 12.7283 2.28564 12.5C2.28564 12.2717 2.33186 12.0457 2.42164 11.8348C2.51143 11.624 2.64304 11.4323 2.80894 11.2709C2.97485 11.1095 3.1718 10.9815 3.38857 10.8942C3.60534 10.8068 3.83766 10.7618 4.07229 10.7618C4.54614 10.7618 5.00058 10.945 5.33564 11.2709C5.6707 11.5969 5.85893 12.039 5.85893 12.5ZM5.85893 4.73815C5.85893 5.19914 5.6707 5.64125 5.33564 5.96721C5.00058 6.29318 4.54614 6.47631 4.07229 6.47631C3.83766 6.47631 3.60534 6.43135 3.38857 6.344C3.1718 6.25665 2.97485 6.12862 2.80894 5.96721C2.64304 5.80581 2.51143 5.6142 2.42164 5.40332C2.33186 5.19243 2.28564 4.96641 2.28564 4.73815C2.28564 4.5099 2.33186 4.28387 2.42164 4.07299C2.51143 3.86211 2.64304 3.6705 2.80894 3.50909C2.97485 3.34769 3.1718 3.21966 3.38857 3.13231C3.60534 3.04496 3.83766 3 4.07229 3C4.30691 3 4.53924 3.04496 4.75601 3.13231C4.97277 3.21966 5.16973 3.34769 5.33564 3.50909C5.50154 3.6705 5.63315 3.86211 5.72293 4.07299C5.81272 4.28387 5.85893 4.5099 5.85893 4.73815Z" fill="black" stroke="black" stroke-width="2" stroke-linecap="round" stroke-linejoin="round"/>
</g>
</g>
</svg>
