<svg width="23" height="24" viewBox="0 0 23 24" fill="none" xmlns="http://www.w3.org/2000/svg">
<g id="picture-to-tape">
<g id="tape">
<g id="receipt">
<path id="Icon" d="M15.9333 2C17.7068 2 18.5936 2 19.271 2.38829C19.8668 2.72984 20.3513 3.27483 20.6549 3.94516C21 4.70722 21 5.70481 21 7.7V15.3C21 17.2952 21 18.2927 20.6549 19.0549C20.3513 19.7252 19.8668 20.2702 19.271 20.6117C18.5936 21 17.7068 21 15.9333 21H2L4.11111 17.7344L2 14.7656L4.11111 11.5L2 8.23438L4.11111 5.26562L2 2H15.9333Z" stroke="black" stroke-width="2" stroke-linecap="round" stroke-linejoin="round"/>
</g>
</g>
<g id="image-05">
<path id="Icon_2" d="M16.4584 20.875H17.1741C17.862 20.875 18.2059 20.875 18.3955 20.7316C18.5607 20.6066 18.6629 20.4156 18.6753 20.2089C18.6894 19.9716 18.4986 19.6854 18.1171 19.113L15.9847 15.9145C15.6694 15.4415 15.5118 15.2051 15.3131 15.1227C15.1393 15.0506 14.9441 15.0506 14.7704 15.1227C14.5717 15.2051 14.414 15.4415 14.0987 15.9145L13.5716 16.7052M16.4584 20.875L11.0152 13.0126C10.7022 12.5605 10.5456 12.3344 10.3501 12.2549C10.1791 12.1854 9.98768 12.1854 9.81665 12.2549C9.62113 12.3344 9.46461 12.5605 9.15157 13.0126L4.93962 19.0966C4.54081 19.6726 4.3414 19.9607 4.35275 20.2002C4.36264 20.4088 4.46409 20.6024 4.62998 20.7293C4.82048 20.875 5.1708 20.875 5.87143 20.875H16.4584ZM17.8751 10.25C17.8751 11.4236 16.9237 12.375 15.7501 12.375C14.5765 12.375 13.6251 11.4236 13.6251 10.25C13.6251 9.07639 14.5765 8.125 15.7501 8.125C16.9237 8.125 17.8751 9.07639 17.8751 10.25Z" stroke="black" stroke-width="2" stroke-linecap="round" stroke-linejoin="round"/>
</g>
</g>
</svg>
