<svg width="24" height="24" viewBox="0 0 24 24" fill="none" xmlns="http://www.w3.org/2000/svg">
<g id="send-backward" clip-path="url(#clip0_2315_29)">
<g id="g7139">
<path id="path7135" d="M9.33333 11.4375V17.8125M9.33333 17.8125L7.22222 15.6875M9.33333 17.8125L11.4444 15.6875M9.33333 7.93586V5.0625C9.33333 4.47387 9.80411 4 10.3889 4H20.9444C21.5292 4 22 4.47387 22 5.0625V15.6875C22 16.2761 21.5292 16.75 20.9444 16.75H15.8658M4.05556 8.25H14.6111C15.1959 8.25 15.6667 8.72387 15.6667 9.3125V19.9375C15.6667 20.5261 15.1959 21 14.6111 21H4.05556C3.47078 21 3 20.5261 3 19.9375V9.3125C3 8.72387 3.47078 8.25 4.05556 8.25Z" stroke="black" stroke-width="2" stroke-linecap="round" stroke-linejoin="round"/>
</g>
</g>
<defs>
<clipPath id="clip0_2315_29">
<rect width="24" height="24" fill="white"/>
</clipPath>
</defs>
</svg>
