<svg width="21" height="21" viewBox="0 0 21 21" fill="none" xmlns="http://www.w3.org/2000/svg">
<g id="send-back" clip-path="url(#clip0_2315_42)">
<g id="g7149">
<path id="path7145" d="M6.5 11.5V17.5M6.5 17.5L3.5 14.5M6.5 17.5L9.5 14.5M8.5 8.11005V1.5C8.5 0.946 8.946 0.5 9.5 0.5H19.5C20.054 0.5 20.5 0.946 20.5 1.5V11.5C20.5 12.054 20.054 12.5 19.5 12.5H12.9158M1.5 8.5H11.5C12.054 8.5 12.5 8.946 12.5 9.5V19.5C12.5 20.054 12.054 20.5 11.5 20.5H1.5C0.946 20.5 0.5 20.054 0.5 19.5V9.5C0.5 8.946 0.946 8.5 1.5 8.5Z" stroke="black" stroke-width="2" stroke-linecap="round" stroke-linejoin="round"/>
</g>
</g>
<defs>
<clipPath id="clip0_2315_42">
<rect width="21" height="21" fill="white"/>
</clipPath>
</defs>
</svg>
