<svg width="24" height="24" viewBox="0 0 24 24" fill="none" xmlns="http://www.w3.org/2000/svg">
<g id="send-back" clip-path="url(#clip0_2315_42)">
<g id="g7149">
<path id="path7145" d="M8.7 13.45V19.15M8.7 19.15L5.85 16.3M8.7 19.15L11.55 16.3M10.6 10.2295V3.95C10.6 3.4237 11.0237 3 11.55 3H21.05C21.5763 3 22 3.4237 22 3.95V13.45C22 13.9763 21.5763 14.4 21.05 14.4H14.795M3.95 10.6H13.45C13.9763 10.6 14.4 11.0237 14.4 11.55V21.05C14.4 21.5763 13.9763 22 13.45 22H3.95C3.4237 22 3 21.5763 3 21.05V11.55C3 11.0237 3.4237 10.6 3.95 10.6Z" stroke="black" stroke-width="2" stroke-linecap="round" stroke-linejoin="round"/>
</g>
</g>
<defs>
<clipPath id="clip0_2315_42">
<rect width="24" height="24" fill="white"/>
</clipPath>
</defs>
</svg>
