<svg width="19" height="17" viewBox="0 0 19 17" fill="none" xmlns="http://www.w3.org/2000/svg">
<g id="send-backward" clip-path="url(#clip0_2315_29)">
<g id="g7139">
<path id="path7135" d="M6.5 7.5V13.5M6.5 13.5L4.5 11.5M6.5 13.5L8.5 11.5M6.5 4.20434V1.5C6.5 0.946 6.946 0.5 7.5 0.5H17.5C18.054 0.5 18.5 0.946 18.5 1.5V11.5C18.5 12.054 18.054 12.5 17.5 12.5H12.6886M1.5 4.5H11.5C12.054 4.5 12.5 4.946 12.5 5.5V15.5C12.5 16.054 12.054 16.5 11.5 16.5H1.5C0.946 16.5 0.5 16.054 0.5 15.5V5.5C0.5 4.946 0.946 4.5 1.5 4.5Z" stroke="black" stroke-width="2" stroke-linecap="round" stroke-linejoin="round"/>
</g>
</g>
<defs>
<clipPath id="clip0_2315_29">
<rect width="19" height="17" fill="white"/>
</clipPath>
</defs>
</svg>
