<svg width="24" height="24" viewBox="0 0 24 24" fill="none" xmlns="http://www.w3.org/2000/svg">
<g id="star-02">
<path id="Icon" d="M11.3064 3.20693C11.5339 2.81107 11.6476 2.61315 11.7963 2.54681C11.9259 2.48895 12.0741 2.48895 12.2038 2.54681C12.3524 2.61315 12.4662 2.81107 12.6936 3.20693L14.6488 6.60925C14.733 6.75579 14.7751 6.82906 14.8342 6.88231C14.8864 6.92942 14.948 6.96498 15.0149 6.98666C15.0905 7.01117 15.175 7.011 15.3441 7.01065L19.2681 7.00272C19.7247 7.00179 19.953 7.00133 20.0848 7.09691C20.1997 7.18028 20.2738 7.30858 20.2885 7.4498C20.3054 7.61171 20.1908 7.80918 19.9618 8.20412L17.9928 11.5985C17.908 11.7447 17.8656 11.8178 17.8491 11.8955C17.8344 11.9643 17.8344 12.0355 17.8491 12.1043C17.8656 12.182 17.908 12.2551 17.9928 12.4013L19.9618 15.7957C20.1908 16.1906 20.3054 16.3881 20.2885 16.55C20.2738 16.6912 20.1997 16.8195 20.0848 16.9029C19.953 16.9985 19.7247 16.998 19.2681 16.9971L15.3441 16.9891C15.175 16.9888 15.0905 16.9886 15.0149 17.0131C14.948 17.0348 14.8864 17.0704 14.8342 17.1175C14.7751 17.1707 14.733 17.244 14.6488 17.3905L12.6936 20.7929C12.4662 21.1887 12.3524 21.3867 12.2038 21.453C12.0741 21.5108 11.9259 21.5108 11.7963 21.453C11.6476 21.3867 11.5339 21.1887 11.3064 20.7929L9.35122 17.3905C9.26701 17.244 9.22491 17.1707 9.16587 17.1175C9.11363 17.0704 9.05204 17.0348 8.98513 17.0131C8.90949 16.9886 8.82499 16.9888 8.65598 16.9891L4.7319 16.9971C4.27533 16.998 4.04705 16.9985 3.91527 16.9029C3.80033 16.8195 3.72626 16.6912 3.71153 16.55C3.69465 16.3881 3.80919 16.1906 4.03827 15.7957L6.00718 12.4013C6.09199 12.2551 6.13439 12.182 6.15098 12.1043C6.16566 12.0355 6.16566 11.9643 6.15098 11.8955C6.13439 11.8178 6.09199 11.7447 6.00718 11.5985L4.03827 8.20411C3.80919 7.80918 3.69465 7.61171 3.71153 7.4498C3.72626 7.30858 3.80033 7.18028 3.91527 7.09691C4.04705 7.00133 4.27533 7.00179 4.7319 7.00272L8.65598 7.01065C8.82499 7.011 8.90949 7.01117 8.98513 6.98666C9.05204 6.96498 9.11363 6.92942 9.16587 6.88231C9.22491 6.82906 9.26701 6.75579 9.35122 6.60925L11.3064 3.20693Z" stroke="black" stroke-width="2" stroke-linecap="round" stroke-linejoin="round"/>
</g>
</svg>
