<svg width="24" height="23" viewBox="0 0 24 23" fill="none" xmlns="http://www.w3.org/2000/svg">
<g id="tape-line">
<g id="Frame 1">
<path id="Icon" d="M8.2 2C9.88016 2 10.7202 2 11.362 2.38829C11.9265 2.72984 12.3854 3.27483 12.673 3.94516C13 4.70722 13 5.70481 13 7.7V15.3C13 17.2952 13 18.2927 12.673 19.0549C12.3854 19.7252 11.9265 20.2702 11.362 20.6117C10.7202 21 9.88016 21 8.2 21H2L4 17.7344L2 14.7656L4 11.5L2 8.23438L4 5.26562L2 2H8.2Z" stroke="black" stroke-width="2" stroke-linecap="round" stroke-linejoin="round"/>
<g id="Vector">
<path d="M13 12H22ZM22 12L16 6ZM22 12L16 18Z" fill="#D9D9D9"/>
<path d="M13 12H22M22 12L16 6M22 12L16 18" stroke="black" stroke-width="2" stroke-linecap="round" stroke-linejoin="round"/>
</g>
</g>
</g>
</svg>
