<svg width="24" height="23" viewBox="0 0 24 23" fill="none" xmlns="http://www.w3.org/2000/svg">
<g id="tape-freehand">
<g id="Group 2">
<path id="Icon" d="M5.16672 16.9776L7.27779 18.3188L5.16672 20.7777H15.9332C17.7067 20.7777 18.5934 20.7777 19.2708 20.4853C19.8666 20.2281 20.351 19.8178 20.6546 19.3131C20.9998 18.7392 20.9998 17.9882 20.9998 16.4859V10.7635C20.9998 9.26118 20.9998 8.51004 20.6546 7.93626C20.351 7.43153 19.8666 7.02118 19.2708 6.76401C19.011 6.6519 18.3609 6.54016 18.3609 6.54016" stroke="black" stroke-width="2" stroke-linecap="round" stroke-linejoin="round"/>
<path id="Icon_2" d="M12.7664 2C14.5399 2 15.4266 2 16.104 2.29236C16.6998 2.54953 17.1843 2.95988 17.4879 3.46461C17.833 4.03839 17.833 4.78953 17.833 6.29181V12.0142C17.833 13.5165 17.833 14.2676 17.4879 14.8414C17.1843 15.3462 16.6998 15.7565 16.104 16.0136C15.4266 16.306 14.5399 16.306 12.7664 16.306H1.99997L4.11104 13.8472L1.99997 11.6119L4.11104 9.15301L1.99997 6.69416L4.11104 4.45885L1.99997 2H12.7664Z" stroke="black" stroke-width="2" stroke-linecap="round" stroke-linejoin="round"/>
<path id="Polygon 1" d="M7.27735 16.7531H16.7772L4.81787 21.0002L7.27735 16.7531Z" fill="black"/>
</g>
</g>
</svg>
