<svg width="50" height="11" viewBox="0 0 50 11" fill="none" xmlns="http://www.w3.org/2000/svg">
<path id="Text" d="M2.22325e-05 10.5895V2.95311H1.42687V4.19601H1.52133C1.68042 3.77508 1.9406 3.44696 2.30187 3.21164C2.66314 2.973 3.09567 2.85368 3.59945 2.85368C4.10987 2.85368 4.53743 2.973 4.88212 3.21164C5.23014 3.45027 5.487 3.7784 5.65272 4.19601H5.73227C5.91456 3.78834 6.20457 3.46353 6.60229 3.22158C7.00002 2.97631 7.47398 2.85368 8.02417 2.85368C8.71688 2.85368 9.28198 3.07077 9.71948 3.50496C10.1603 3.93915 10.3807 4.59374 10.3807 5.46874V10.5895H8.8942V5.60794C8.8942 5.0909 8.75334 4.71637 8.47161 4.48436C8.18989 4.25236 7.85348 4.13635 7.46238 4.13635C6.97848 4.13635 6.60229 4.2855 6.33383 4.5838C6.06536 4.87878 5.93113 5.25827 5.93113 5.72229V10.5895H4.4496V5.51348C4.4496 5.09918 4.32033 4.76609 4.06181 4.51419C3.80329 4.2623 3.46688 4.13635 3.05258 4.13635C2.77086 4.13635 2.51068 4.21093 2.27204 4.36007C2.03672 4.50591 1.84614 4.70974 1.70031 4.97158C1.55779 5.23342 1.48653 5.53668 1.48653 5.88138V10.5895H2.22325e-05ZM14.5954 10.7585C14.1115 10.7585 13.674 10.669 13.2829 10.49C12.8918 10.3078 12.5819 10.0443 12.3532 9.69956C12.1278 9.35487 12.0151 8.93228 12.0151 8.43181C12.0151 8.00094 12.098 7.6463 12.2637 7.36789C12.4294 7.08948 12.6531 6.86907 12.9349 6.70667C13.2166 6.54426 13.5314 6.42163 13.8795 6.33877C14.2275 6.25591 14.5821 6.19293 14.9434 6.14985C15.4008 6.09682 15.772 6.05373 16.057 6.02059C16.3421 5.98413 16.5492 5.92613 16.6785 5.84658C16.8077 5.76703 16.8724 5.63777 16.8724 5.4588V5.42399C16.8724 4.98981 16.7497 4.6534 16.5045 4.41476C16.2625 4.17612 15.9012 4.05681 15.4207 4.05681C14.9202 4.05681 14.5258 4.16784 14.2374 4.3899C13.9524 4.60865 13.7552 4.85226 13.6458 5.12073L12.2488 4.80255C12.4145 4.33853 12.6564 3.964 12.9746 3.67897C13.2961 3.39061 13.6657 3.18181 14.0833 3.05255C14.5009 2.91997 14.9401 2.85368 15.4008 2.85368C15.7057 2.85368 16.0288 2.89014 16.3702 2.96306C16.7149 3.03266 17.0364 3.16192 17.3347 3.35084C17.6363 3.53976 17.8832 3.80988 18.0755 4.16121C18.2677 4.50922 18.3638 4.96164 18.3638 5.51845V10.5895H16.9121V9.54544H16.8525C16.7564 9.73768 16.6122 9.9266 16.4199 10.1122C16.2277 10.2978 15.9808 10.4519 15.6792 10.5746C15.3776 10.6972 15.0163 10.7585 14.5954 10.7585ZM14.9185 9.56533C15.3295 9.56533 15.6808 9.48413 15.9725 9.32172C16.2675 9.15932 16.4912 8.9472 16.6437 8.68536C16.7994 8.42021 16.8773 8.13683 16.8773 7.83522V6.85084C16.8243 6.90387 16.7216 6.95359 16.5691 6.99999C16.4199 7.04308 16.2493 7.08119 16.057 7.11434C15.8648 7.14416 15.6775 7.17234 15.4952 7.19885C15.3129 7.22205 15.1605 7.24194 15.0378 7.25851C14.7495 7.29497 14.486 7.35629 14.2474 7.44246C14.012 7.52863 13.8231 7.65292 13.6806 7.81533C13.5414 7.97442 13.4718 8.18654 13.4718 8.45169C13.4718 8.81959 13.6077 9.098 13.8795 9.28692C14.1512 9.47253 14.4976 9.56533 14.9185 9.56533ZM20.3438 10.5895V2.95311H21.8303V10.5895H20.3438ZM21.0945 1.77485C20.836 1.77485 20.6139 1.68867 20.4283 1.51632C20.246 1.34066 20.1549 1.13185 20.1549 0.889903C20.1549 0.644638 20.246 0.435831 20.4283 0.263483C20.6139 0.08782 20.836 -1.13249e-05 21.0945 -1.13249e-05C21.353 -1.13249e-05 21.5734 0.08782 21.7557 0.263483C21.9413 0.435831 22.0341 0.644638 22.0341 0.889903C22.0341 1.13185 21.9413 1.34066 21.7557 1.51632C21.5734 1.68867 21.353 1.77485 21.0945 1.77485ZM25.3166 0.407659V10.5895H23.8301V0.407659H25.3166ZM31.8157 5.64274V6.93039H27.3015V5.64274H31.8157ZM37.3218 10.7585C36.5362 10.7552 35.8651 10.548 35.3083 10.1371C34.7514 9.72608 34.3255 9.12783 34.0306 8.34232C33.7356 7.55681 33.5881 6.61055 33.5881 5.50354C33.5881 4.39985 33.7356 3.4569 34.0306 2.6747C34.3289 1.89251 34.7564 1.29592 35.3132 0.884932C35.8734 0.473947 36.5429 0.268454 37.3218 0.268454C38.1006 0.268454 38.7685 0.475604 39.3253 0.889903C39.8821 1.30089 40.308 1.89748 40.603 2.67968C40.9013 3.45856 41.0504 4.39985 41.0504 5.50354C41.0504 6.61386 40.903 7.56178 40.608 8.34729C40.313 9.12949 39.8871 9.72774 39.3303 10.142C38.7735 10.553 38.104 10.7585 37.3218 10.7585ZM37.3218 9.4311C38.0111 9.4311 38.5497 9.09469 38.9375 8.42186C39.3286 7.74904 39.5242 6.77627 39.5242 5.50354C39.5242 4.65837 39.4347 3.94412 39.2557 3.36078C39.08 2.77414 38.8265 2.33001 38.4951 2.0284C38.1669 1.72347 37.7758 1.57101 37.3218 1.57101C36.6357 1.57101 36.0971 1.90908 35.706 2.58522C35.3149 3.26135 35.1177 4.23413 35.1144 5.50354C35.1144 6.35202 35.2022 7.06959 35.3779 7.65624C35.5568 8.23957 35.8104 8.68204 36.1385 8.98365C36.4666 9.28195 36.8611 9.4311 37.3218 9.4311ZM46.1749 10.7287C45.5518 10.7287 44.9917 10.6094 44.4945 10.3707C44.0007 10.1288 43.6063 9.79734 43.3113 9.37641C43.0163 8.95548 42.8589 8.47489 42.839 7.93465H44.3305C44.3669 8.37215 44.5608 8.73176 44.9121 9.01348C45.2635 9.29521 45.6844 9.43607 46.1749 9.43607C46.566 9.43607 46.9124 9.34658 47.214 9.1676C47.5189 8.98531 47.7575 8.73507 47.9299 8.41689C48.1056 8.09871 48.1934 7.73578 48.1934 7.32811C48.1934 6.91381 48.1039 6.54426 47.9249 6.21945C47.7459 5.89464 47.499 5.63943 47.1841 5.45382C46.8726 5.26822 46.5146 5.17376 46.1103 5.17044C45.802 5.17044 45.4922 5.22347 45.1806 5.32953C44.869 5.43559 44.6172 5.5748 44.4249 5.74715L43.018 5.53834L43.5897 0.407659H49.1877V1.72513H44.8674L44.5442 4.57385H44.6039C44.8028 4.38162 45.0663 4.22087 45.3944 4.09161C45.7258 3.96235 46.0805 3.89772 46.4583 3.89772C47.0781 3.89772 47.6299 4.04521 48.1138 4.34019C48.6011 4.63517 48.9839 5.03787 49.2623 5.54828C49.544 6.05539 49.6832 6.63872 49.6799 7.29828C49.6832 7.95785 49.5341 8.54615 49.2324 9.0632C48.9341 9.58024 48.5198 9.98792 47.9895 10.2862C47.4626 10.5812 46.8577 10.7287 46.1749 10.7287Z" fill="#181D27"/>
</svg>
