<svg width="24" height="22" viewBox="0 0 24 22" fill="none" xmlns="http://www.w3.org/2000/svg">
<g id="text-list" clip-path="url(#clip0_2315_36)">
<g id="g6717">
<path id="path543" d="M22.8998 10.8799H7.31258M22.8998 20.6521H7.31258M22.8998 1.10782L7.31258 1.1078" stroke="black" stroke-linecap="round" stroke-linejoin="round"/>
<path id="path1315" d="M1.10001 2.20002C1.70752 2.20002 2.20001 1.70753 2.20001 1.10001C2.20001 0.492493 1.70752 0 1.10001 0C0.492488 0 0 0.492493 0 1.10001C0 1.70753 0.492488 2.20002 1.10001 2.20002Z" fill="black"/>
<path id="circle1369" d="M1.10001 11.9814C1.70752 11.9814 2.20001 11.4889 2.20001 10.8814C2.20001 10.2739 1.70752 9.78137 1.10001 9.78137C0.492488 9.78137 0 10.2739 0 10.8814C0 11.4889 0.492488 11.9814 1.10001 11.9814Z" fill="black"/>
<path id="circle1371" d="M1.10001 21.7629C1.70752 21.7629 2.20001 21.2704 2.20001 20.6629C2.20001 20.0554 1.70752 19.5629 1.10001 19.5629C0.492488 19.5629 0 20.0554 0 20.6629C0 21.2704 0.492488 21.7629 1.10001 21.7629Z" fill="black"/>
</g>
</g>
<defs>
<clipPath id="clip0_2315_36">
<rect width="23.4" height="21.7629" fill="white"/>
</clipPath>
</defs>
</svg>
