<svg width="22" height="22" viewBox="0 0 22 22" fill="none" xmlns="http://www.w3.org/2000/svg">
<g id="ungroup" clip-path="url(#clip0_2315_45)">
<g id="g7177">
<path id="path7173" d="M1 18V21H4M18 1H21V4M4 1H1V4M21 18L18 21M18 18L21 21M11.3685 5.84171H15.474C15.8531 5.84171 16.1583 6.14689 16.1583 6.52597V10.6315C16.1583 11.0106 15.8531 11.3157 15.474 11.3157H11.3685C10.9894 11.3157 10.6843 11.0106 10.6843 10.6315V6.52597C10.6843 6.14689 10.9894 5.84171 11.3685 5.84171ZM11.2334 13.833C11.2334 14.6463 10.9103 15.4262 10.3353 16.0013C9.76021 16.5763 8.98026 16.8994 8.167 16.8994C7.35374 16.8994 6.57378 16.5763 5.99872 16.0013C5.42366 15.4262 5.10059 14.6463 5.10059 13.833C5.10059 13.0197 5.42366 12.2398 5.99872 11.6647C6.57378 11.0897 7.35374 10.7666 8.167 10.7666C8.98026 10.7666 9.76021 11.0897 10.3353 11.6647C10.9103 12.2398 11.2334 13.0197 11.2334 13.833Z" stroke="black" stroke-width="2" stroke-linecap="round" stroke-linejoin="round"/>
</g>
</g>
<defs>
<clipPath id="clip0_2315_45">
<rect width="22" height="22" fill="white"/>
</clipPath>
</defs>
</svg>
