<svg width="24" height="24" viewBox="0 0 24 24" fill="none" xmlns="http://www.w3.org/2000/svg">
<g id="ungroup" clip-path="url(#clip0_2315_45)">
<g id="g7177">
<path id="path7173" d="M3 19.15V22H5.85M19.15 3H22V5.85M5.85 3H3V5.85M22 19.15L19.15 22M19.15 19.15L22 22M12.8501 7.59963H16.7503C17.1105 7.59963 17.4004 7.88955 17.4004 8.24967V12.1499C17.4004 12.51 17.1105 12.8 16.7503 12.8H12.8501C12.49 12.8 12.2 12.51 12.2 12.1499V8.24967C12.2 7.88955 12.49 7.59963 12.8501 7.59963ZM12.7217 15.1914C12.7217 15.964 12.4148 16.7049 11.8685 17.2512C11.3222 17.7975 10.5812 18.1044 9.80865 18.1044C9.03605 18.1044 8.29509 17.7975 7.74879 17.2512C7.20248 16.7049 6.89556 15.964 6.89556 15.1914C6.89556 14.4188 7.20248 13.6778 7.74879 13.1315C8.29509 12.5852 9.03605 12.2783 9.80865 12.2783C10.5812 12.2783 11.3222 12.5852 11.8685 13.1315C12.4148 13.6778 12.7217 14.4188 12.7217 15.1914Z" stroke="black" stroke-width="2" stroke-linecap="round" stroke-linejoin="round"/>
</g>
</g>
<defs>
<clipPath id="clip0_2315_45">
<rect width="24" height="24" fill="white"/>
</clipPath>
</defs>
</svg>
