<svg width="24" height="24" viewBox="0 0 24 24" fill="none" xmlns="http://www.w3.org/2000/svg">
<g id="width" clip-path="url(#clip0_2315_34)">
<g id="g960">
<path id="circle956" d="M22 12.5C22 13.4283 21.6181 14.3185 20.9384 14.9749C20.2586 15.6313 19.3367 16 18.3753 16C17.414 16 16.4921 15.6313 15.8123 14.9749C15.1326 14.3185 14.7507 13.4283 14.7507 12.5C14.7507 11.5717 15.1326 10.6815 15.8123 10.0251C16.4921 9.36875 17.414 9 18.3753 9C19.3367 9 20.2586 9.36875 20.9384 10.0251C21.6181 10.6815 22 11.5717 22 12.5ZM12.1375 12.5C12.1375 13.057 11.9084 13.5911 11.5006 13.9849C11.0927 14.3788 10.5395 14.6 9.96274 14.6C9.38595 14.6 8.83278 14.3788 8.42493 13.9849C8.01707 13.5911 7.78794 13.057 7.78794 12.5C7.78794 11.943 8.01707 11.4089 8.42493 11.0151C8.83278 10.6212 9.38595 10.4 9.96274 10.4C10.5395 10.4 11.0927 10.6212 11.5006 11.0151C11.9084 11.4089 12.1375 11.943 12.1375 12.5ZM5.17479 12.5C5.17479 12.6379 5.14667 12.7744 5.09202 12.9018C5.03737 13.0292 4.95728 13.145 4.8563 13.2425C4.75533 13.34 4.63546 13.4173 4.50353 13.4701C4.3716 13.5228 4.2302 13.55 4.0874 13.55C3.799 13.55 3.52242 13.4394 3.31849 13.2425C3.11456 13.0455 3 12.7785 3 12.5C3 12.2215 3.11456 11.9545 3.31849 11.7575C3.52242 11.5606 3.799 11.45 4.0874 11.45C4.2302 11.45 4.3716 11.4772 4.50353 11.5299C4.63546 11.5827 4.75533 11.66 4.8563 11.7575C4.95728 11.855 5.03737 11.9708 5.09202 12.0982C5.14667 12.2256 5.17479 12.3621 5.17479 12.5Z" fill="black"/>
</g>
</g>
<defs>
<clipPath id="clip0_2315_34">
<rect width="24" height="24" fill="white"/>
</clipPath>
</defs>
</svg>
