<svg width="25" height="10" viewBox="0 0 25 10" fill="none" xmlns="http://www.w3.org/2000/svg">
<g id="width" clip-path="url(#clip0_2315_34)">
<g id="g960">
<path id="circle956" d="M23.618 4.91024C23.618 6.07991 23.1533 7.20168 22.3262 8.02876C21.4991 8.85584 20.3774 9.32049 19.2077 9.32049C18.038 9.32049 16.9163 8.85584 16.0892 8.02876C15.2621 7.20168 14.7975 6.07991 14.7975 4.91024C14.7975 3.74058 15.2621 2.61881 16.0892 1.79173C16.9163 0.964649 18.038 0.5 19.2077 0.5C20.3774 0.5 21.4991 0.964649 22.3262 1.79173C23.1533 2.61881 23.618 3.74058 23.618 4.91024ZM11.618 4.91024C11.618 5.61205 11.3392 6.2851 10.8429 6.78135C10.3467 7.2776 9.67361 7.55639 8.9718 7.55639C8.27 7.55639 7.59694 7.2776 7.1007 6.78135C6.60445 6.2851 6.32566 5.61205 6.32566 4.91024C6.32566 4.20844 6.60445 3.53538 7.1007 3.03914C7.59694 2.54289 8.27 2.2641 8.9718 2.2641C9.67361 2.2641 10.3467 2.54289 10.8429 3.03914C11.3392 3.53539 11.618 4.20844 11.618 4.91024ZM3.14615 4.91024C3.14615 5.08399 3.11192 5.25604 3.04543 5.41656C2.97894 5.57709 2.88149 5.72294 2.75863 5.8458C2.63577 5.96866 2.48991 6.06611 2.32939 6.13261C2.16887 6.1991 1.99682 6.23332 1.82307 6.23332C1.47217 6.23332 1.13564 6.09392 0.887519 5.8458C0.639395 5.59767 0.5 5.26115 0.5 4.91024C0.5 4.55934 0.639395 4.22281 0.887519 3.97469C1.13564 3.72657 1.47217 3.58717 1.82307 3.58717C1.99682 3.58717 2.16887 3.62139 2.32939 3.68788C2.48991 3.75437 2.63577 3.85183 2.75863 3.97469C2.88149 4.09755 2.97894 4.2434 3.04543 4.40393C3.11192 4.56445 3.14615 4.7365 3.14615 4.91024Z" fill="black"/>
</g>
</g>
<defs>
<clipPath id="clip0_2315_34">
<rect width="24.118" height="9.82049" fill="white"/>
</clipPath>
</defs>
</svg>
